<svg version="1.1" viewBox="0.0 0.0 960.0 540.0" fill="none" stroke="none" stroke-linecap="square" stroke-miterlimit="10" xmlns:xlink="http://www.w3.org/1999/xlink" xmlns="http://www.w3.org/2000/svg"><clipPath id="g100b18b1497_0_72.0"><path d="m0 0l960.0 0l0 540.0l-960.0 0l0 -540.0z" clip-rule="nonzero"/></clipPath><g clip-path="url(#g100b18b1497_0_72.0)"><path fill="#ffffff" d="m0 0l960.0 0l0 540.0l-960.0 0z" fill-rule="evenodd"/><path fill="#000000" fill-opacity="0.0" d="m314.27036 164.87927l331.46457 0l0 31.842514l-331.46457 0z" fill-rule="evenodd"/><path fill="#000000" d="m358.6111 181.4549l-1.578125 0l0 1.328125l1.578125 0l0 -1.328125zm1.359375 0l0 1.328125l1.625 0l0 -1.328125l-1.625 0zm-1.359375 -0.890625l0 -1.328125l-1.578125 0l0 1.328125l1.578125 0zm1.359375 0l1.625 0l0 -1.328125l-1.625 0l0 1.328125zm0.046875 6.703125q1.171875 -0.15625 2.59375 -0.421875l0.109375 0.71875q0.765625 -1.609375 1.171875 -3.828125q0.40625 -2.234375 0.5625 -6.046875l-1.734375 0l0 -0.640625l-2.703125 0l0 1.078125l2.828125 0l0 5.75l-2.828125 0l0 1.140625l2.734375 0l0 1.125l-2.734375 0l0 1.125zm-5.484375 -9.203125l0 11.28125l-1.375 0l0 -8.703125q-0.59375 1.28125 -1.09375 2.015625l-0.609375 -1.5q2.21875 -3.546875 3.078125 -8.546875l1.296875 0.09375q-0.390625 2.78125 -1.296875 5.359375zm10.703125 10.625l0.015625 -1.296875q1.046875 0.171875 1.609375 0.171875q0.296875 0 0.4375 -0.515625q0.15625 -0.515625 0.265625 -2.625q0.109375 -2.125 0.109375 -6.21875l0 -0.515625l-1.890625 0q-0.171875 4.53125 -0.734375 7.03125q-0.5625 2.484375 -1.65625 4.453125l-1.140625 -0.703125q0.03125 -0.0625 0.09375 -0.1875q0.078125 -0.109375 0.109375 -0.1875q-3.28125 0.625 -7.03125 0.96875l-0.125 -1.25q1.734375 -0.15625 3.28125 -0.34375l0 -1.328125l-2.953125 0l0 -1.125l2.953125 0l0 -1.140625l-1.546875 0l-1.28125 0l0 -5.75l2.828125 0l0 -1.078125l-3.015625 0l0 -1.125l3.015625 0l0 -1.25q-1.21875 0.125 -2.453125 0.171875l-0.125 -1.203125q3.703125 -0.1875 6.625 -0.859375l0.28125 1.203125q-1.484375 0.328125 -2.890625 0.53125l0 1.40625l2.921875 0l0 0.515625l1.546875 0q0.046875 -1.140625 0.046875 -3.796875l1.34375 0q0 2.0625 -0.0625 3.796875l3.25 0l0 0.875q0 4.1875 -0.078125 6.453125q-0.0625 2.25 -0.28125 3.4375q-0.203125 1.171875 -0.484375 1.421875q-0.265625 0.25 -0.828125 0.25q-0.8125 0 -2.15625 -0.1875zm18.25 -14.8125q-3.8125 3.0625 -7.03125 5.171875q-1.125 0.71875 -1.421875 1.0q-0.28125 0.265625 -0.28125 0.578125q0 0.296875 0.25 0.5625q0.265625 0.25 1.234375 0.921875q3.90625 2.640625 7.828125 6.0625l-1.015625 1.0q-3.84375 -3.3125 -7.640625 -5.953125q-1.5 -1.015625 -1.890625 -1.4375q-0.390625 -0.4375 -0.390625 -1.15625q0 -0.734375 0.40625 -1.171875q0.421875 -0.453125 2.015625 -1.484375q3.484375 -2.328125 7.015625 -5.140625l0.921875 1.046875zm20.6875 14.21875q-2.21875 0.375 -4.6875 0.375q-3.40625 0 -4.9375 -0.796875q-1.515625 -0.796875 -1.515625 -2.515625q0 -2.953125 5.609375 -4.546875q-0.25 -0.859375 -0.6875 -1.1875q-0.4375 -0.34375 -1.140625 -0.34375q-1.109375 0 -2.53125 1.09375q-1.40625 1.078125 -2.84375 3.109375l-1.125 -0.734375q2.296875 -3.1875 3.75 -6.453125l-3.640625 0l0 -1.1875l4.140625 0q0.421875 -1.046875 0.84375 -2.28125l1.34375 0.3125q-0.375 1.0 -0.75 1.96875l8.09375 0l0 1.1875l-8.59375 0q-0.625 1.40625 -1.375 2.890625l0.03125 0.015625q1.609375 -1.109375 2.90625 -1.109375q2.203125 0 2.921875 2.390625q1.890625 -0.4375 4.28125 -0.734375l0.125 1.21875q-2.53125 0.328125 -4.140625 0.703125q0.25 1.40625 0.25 3.640625l-1.4375 0q0 -2.015625 -0.171875 -3.28125q-4.4375 1.28125 -4.4375 3.21875q0 0.5 0.1875 0.859375q0.1875 0.359375 0.6875 0.6875q0.5 0.328125 1.546875 0.5q1.046875 0.15625 2.609375 0.15625q2.078125 0 4.546875 -0.40625l0.140625 1.25zm5.390625 -11.4375l0 -1.25l4.171875 0q0.03125 -0.265625 0.09375 -1.125q0.0625 -0.875 0.09375 -1.375l1.421875 0.0625q-0.078125 1.0625 -0.171875 2.4375l7.328125 0l0 1.25l-7.40625 0q-0.03125 0.703125 -0.109375 1.90625q-0.0625 1.203125 -0.0625 1.28125l6.46875 0l0 1.25l-6.53125 0q-0.078125 2.203125 -0.078125 2.703125q0 2.203125 0.65625 2.875q0.671875 0.671875 2.890625 0.671875q4.359375 0 4.359375 -3.015625q0 -0.5625 -0.21875 -1.484375l1.328125 -0.3125q0.265625 1.046875 0.265625 1.890625q0 2.0625 -1.453125 3.15625q-1.4375 1.078125 -4.28125 1.078125q-2.90625 0 -3.9375 -1.0q-1.03125 -1.0 -1.03125 -3.859375q0 -1.078125 0.0625 -2.703125l-4.296875 0l0 -1.25l4.359375 0q0 -0.078125 0.0625 -1.28125q0.078125 -1.203125 0.125 -1.90625l-4.109375 0zm19.515625 2.0625q4.4375 -1.125 6.671875 -1.125q5.65625 0 5.65625 4.71875q0 2.828125 -2.40625 4.28125q-2.390625 1.453125 -7.171875 1.453125l-0.0625 -1.28125q4.21875 0 6.203125 -1.078125q2.0 -1.078125 2.0 -3.25q0 -1.796875 -1.0625 -2.65625q-1.046875 -0.875 -3.265625 -0.875q-1.96875 0 -6.265625 1.109375l-0.296875 -1.296875zm20.296875 -5.40625l1.453125 -0.21875q0.515625 3.09375 1.265625 6.03125q2.953125 -1.375 7.75 -2.46875l0.28125 1.28125q-5.65625 1.296875 -8.453125 2.890625q-2.796875 1.578125 -2.796875 3.34375q0 2.984375 5.53125 2.984375q2.5625 0 5.71875 -0.421875l0.140625 1.296875q-3.171875 0.4375 -5.859375 0.4375q-3.453125 0 -5.25 -1.078125q-1.78125 -1.09375 -1.78125 -3.15625q0 -2.484375 3.359375 -4.421875q-0.859375 -3.421875 -1.359375 -6.5z" fill-rule="nonzero"/><path fill="#f03748" d="m470.0486 178.2049l0 2.09375l5.03125 0l0 -2.09375l-5.03125 0zm0 -1.15625l5.03125 0l0 -1.890625l-5.03125 0l0 1.890625zm1.109375 6.890625l-6.609375 0l0 -1.25l7.265625 0l0 -1.21875l-1.765625 0l-1.4375 0l0 -7.5l2.703125 0q0.296875 -0.9375 0.484375 -1.703125l1.46875 0.125q-0.234375 1.0625 -0.421875 1.578125l3.671875 0l0 7.5l-3.203125 0l0 1.21875l7.265625 0l0 1.25l-6.609375 0q2.46875 2.140625 7.15625 3.890625l-0.515625 1.21875q-4.75 -1.890625 -7.296875 -4.15625l0 4.453125l-1.5 0l0 -4.453125q-2.546875 2.265625 -7.296875 4.15625l-0.515625 -1.21875q4.6875 -1.75 7.15625 -3.890625zm-3.96875 -6.859375q-1.234375 -1.171875 -3.125 -2.5625l0.875 -1.046875q1.890625 1.390625 3.140625 2.59375l-0.890625 1.015625zm-3.265625 3.5q2.171875 -1.0 3.796875 -2.15625l0.640625 1.125q-1.671875 1.234375 -3.859375 2.21875l-0.578125 -1.1875zm14.0 -3.515625l-0.90625 -1.0q1.640625 -1.21875 3.140625 -2.578125l0.90625 0.984375q-1.25 1.203125 -3.140625 2.59375zm-1.203125 2.5l0.65625 -1.15625q2.3125 1.046875 3.859375 2.1875l-0.703125 1.15625q-1.6875 -1.21875 -3.8125 -2.1875zm10.71875 -6.234375q-0.234375 5.0625 -0.234375 8.421875q0 1.75 0.21875 2.859375q0.21875 1.109375 0.703125 1.71875q0.5 0.59375 1.15625 0.8125q0.65625 0.203125 1.6875 0.203125q1.96875 0 3.59375 -1.484375q1.625 -1.484375 2.703125 -4.3125l1.28125 0.5q-1.203125 3.265625 -3.15625 4.96875q-1.953125 1.6875 -4.421875 1.6875q-2.9375 0 -4.078125 -1.5q-1.140625 -1.5 -1.140625 -5.453125q0 -3.75 0.203125 -8.46875l1.484375 0.046875zm26.640594 0.546875q-3.8124695 3.0625 -7.0312195 5.171875q-1.125 0.71875 -1.421875 1.0q-0.28125 0.265625 -0.28125 0.578125q0 0.296875 0.25 0.5625q0.265625 0.25 1.234375 0.921875q3.90625 2.640625 7.8280945 6.0625l-1.015625 1.0q-3.8437195 -3.3125 -7.6405945 -5.953125q-1.5 -1.015625 -1.890625 -1.4375q-0.390625 -0.4375 -0.390625 -1.15625q0 -0.734375 0.40625 -1.171875q0.421875 -0.453125 2.015625 -1.484375q3.484375 -2.328125 7.0155945 -5.140625l0.921875 1.046875z" fill-rule="nonzero"/><path fill="#000000" d="m525.15796 187.87677l-1.21875 0.9375q-1.90625 -2.265625 -3.65625 -3.96875l1.140625 -1.03125q1.90625 1.875 3.734375 4.0625z" fill-rule="nonzero"/><path fill="#f03748" d="m542.4392 175.23615l3.765625 0q-1.0 -0.625 -2.109375 -1.515625q-0.734375 0.734375 -1.65625 1.515625zm-1.28125 5.25q0 0.46875 -0.03125 1.25l5.75 0l0 -1.25l-5.71875 0zm0 -1.015625l5.71875 0l0 -1.203125l-5.71875 0l0 1.203125zm8.609375 5.953125l0 -11.703125l1.390625 0l0 11.703125l-1.390625 0zm4.046875 -12.4375l1.4375 0l0 13.75q0 1.5625 -0.359375 1.953125q-0.359375 0.390625 -1.734375 0.390625q-0.8125 0 -2.40625 -0.09375l-0.03125 -1.328125q1.46875 0.09375 2.21875 0.09375q0.59375 0 0.734375 -0.15625q0.140625 -0.171875 0.140625 -0.9375l0 -13.671875zm-10.578125 -0.1875l1.640625 0q1.90625 1.453125 4.296875 2.640625l-0.578125 1.1875q-1.09375 -0.5625 -1.71875 -0.953125l0 0.625l-5.046875 0l0 -0.5625q-0.890625 0.734375 -1.921875 1.4375l8.40625 0l0 5.640625l-7.265625 0q-0.09375 0.9375 -0.109375 1.046875l7.5625 0l0 5.40625l-1.40625 0l0 -0.796875l-5.203125 0l0 0.796875l-1.375 0l0 -4.046875q-0.421875 2.0 -1.296875 3.453125l-1.0 -1.015625q0.8125 -1.4375 1.171875 -3.25q0.375 -1.8125 0.375 -4.484375l0 -2.65625q-0.359375 0.25 -1.109375 0.703125l-0.296875 -1.390625q2.65625 -1.5625 4.875 -3.78125zm3.859375 14.5625l0 -2.40625l-5.203125 0l0 2.40625l5.203125 0zm13.75 -0.5625q-1.125 1.234375 -2.859375 2.453125l-0.671875 -1.203125q1.578125 -1.0625 2.703125 -2.25l0 -4.890625l-2.515625 0l0 -1.25l3.921875 0l0 5.78125q0.5 0.90625 1.21875 1.375q0.71875 0.453125 2.0625 0.671875q1.34375 0.203125 3.75 0.203125l5.640625 0l-0.078125 1.25l-5.609375 0q-3.34375 0 -5.03125 -0.46875q-1.671875 -0.46875 -2.53125 -1.671875zm4.21875 -2.1875l6.515625 0l0 -2.765625l-6.515625 0l0 2.765625zm0 1.15625l-1.40625 0l0 -5.078125l9.328125 0l0 5.078125l-7.921875 0zm-7.203125 -11.734375l0.984375 -0.859375q1.53125 1.546875 3.078125 3.296875l-0.96875 0.859375q-1.8125 -2.046875 -3.09375 -3.296875zm11.3125 4.171875l4.734375 0l0 1.21875l-11.734375 0l0 -1.21875l5.578125 0l0 -2.484375l-2.953125 0q-0.5 1.109375 -1.234375 2.203125l-1.34375 -0.53125q1.484375 -2.09375 2.21875 -4.734375l1.34375 0.28125q-0.15625 0.671875 -0.484375 1.53125l2.453125 0l0 -1.828125l1.421875 0l0 1.828125l4.234375 0l0 1.25l-4.234375 0l0 2.484375zm8.75 3.578125l0 4.5l3.53125 0l0 -4.5l-3.53125 0zm0 -1.203125l3.53125 0l0 -4.328125l-3.53125 0l0 4.328125zm12.765625 8.390625q-1.515625 0 -3.84375 -0.171875l-0.03125 -1.296875q2.21875 0.15625 3.28125 0.15625q0.375 0 0.59375 -0.71875q0.21875 -0.734375 0.390625 -3.328125q0.1875 -2.609375 0.328125 -7.703125l-5.5 0q-1.140625 2.671875 -2.578125 4.421875l-0.5 -0.484375l0 7.65625l-4.90625 0l0 1.4375l-1.40625 0l0 -13.9375l2.046875 0q0.640625 -1.40625 0.96875 -2.609375l1.390625 0.203125q-0.359375 1.21875 -0.875 2.40625l2.78125 0l0 3.796875q1.96875 -2.78125 2.8125 -6.46875l1.375 0.1875q-0.265625 1.09375 -0.609375 2.109375l6.4375 0q-0.078125 3.4375 -0.15625 5.734375q-0.078125 2.296875 -0.203125 3.953125q-0.125 1.640625 -0.265625 2.53125q-0.140625 0.890625 -0.390625 1.375q-0.234375 0.5 -0.484375 0.625q-0.234375 0.125 -0.65625 0.125zm-5.34375 -9.984375l1.1875 -0.65625q1.5625 2.375 2.6875 5.0l-1.234375 0.5625q-1.171875 -2.6875 -2.640625 -4.90625z" fill-rule="nonzero"/><path fill="#000000" d="m602.09546 176.34552l0 -1.28125l7.921875 0l0 1.28125l-7.921875 0zm-3.6875 -2.765625q-0.90625 3.390625 -0.90625 7.421875q0 4.03125 0.90625 7.421875l-1.40625 0.1875q-0.9375 -3.546875 -0.9375 -7.609375q0 -4.0625 0.9375 -7.609375l1.40625 0.1875zm11.875 12.34375l0.203125 1.25q-2.25 0.578125 -4.28125 0.578125q-2.5625 0 -4.046875 -0.9375q-1.484375 -0.9375 -1.484375 -2.515625q0 -0.796875 0.640625 -1.84375q0.65625 -1.046875 1.75 -1.9375l1.015625 0.859375q-0.921875 0.75 -1.453125 1.5625q-0.53125 0.8125 -0.53125 1.359375q0 1.046875 1.0625 1.609375q1.0625 0.546875 3.046875 0.546875q1.9375 0 4.078125 -0.53125z" fill-rule="nonzero"/><path fill="#13202f" d="m494.03763 227.95337l-2.8130798 0.29934692l-2.8137512 0.658844l-2.6339722 1.0176544l-2.5144043 1.4365997l-2.2745056 1.6764984l-2.0360107 2.0353088l-1.7359314 2.3346405l-1.3764648 2.6340027l-1.0777893 2.8731995l-0.59869385 3.1130981l-0.05947876 1.6758118l0 19.455658l0.05947876 0.71899414l1.0176392 1.0176392l0.71829224 0.11959839l17.779846 0l2.2745056 -0.060150146l4.250366 -0.71829224l3.8313904 -1.436615l3.412445 -2.275177l1.6163635 -1.4960632l1.4365845 -1.5568848l2.2745056 -3.4117737l1.4967651 -3.711792l0.7182617 -3.890854l0 -3.951004l-0.7182617 -3.8313904l-1.4967651 -3.711792l-2.2745056 -3.4124603l-1.4365845 -1.5561981l-1.1974182 -1.1372528l-2.5745544 -1.9156952l-2.693451 -1.3771515l-2.8137512 -0.9575043l-2.8731995 -0.5385437l-2.8738708 -0.12030029z" fill-rule="evenodd"/><path fill="#f03748" d="m447.88315 243.69792l-3.8908386 0.7784424l-3.711792 1.496048l-3.412445 2.2752075l-1.4967651 1.4365997l-1.1966858 1.197403l-1.8562622 2.5738525l-1.4365845 2.6941528l-0.95751953 2.8137207l-0.5392456 2.87323l-0.11959839 2.8731995l0.29934692 2.8137512l0.71829224 2.8137512l1.0176697 2.6339722l1.3771362 2.5144043l1.7359619 2.2745056l2.0352783 2.0353088l2.3346558 1.7359619l2.6340027 1.3771362l2.8731995 1.0777893l3.1130981 0.59802246l1.6765137 0.060150146l19.455627 0l0.71832275 -0.060150146l1.0176392 -1.0176697l0.059448242 -0.71829224l0 -17.779144l-0.059448242 -2.2752075l-0.658844 -4.2503357l-1.4365845 -3.830719l-2.2745056 -3.4725952l-1.5569153 -1.5561981l-1.4960632 -1.4365997l-3.412445 -2.2752075l-3.711792 -1.496048l-3.8908386 -0.7784424z" fill-rule="evenodd"/><path fill="#f03748" d="m466.3806 288.29617l-2.2745056 0.060150146l-4.2503357 0.6581421l-3.7712708 1.4967651l-3.4718933 2.274475l-1.6163635 1.4967651l-1.4372864 1.5568848l-2.2745056 3.4117737l-1.4967346 3.711792l-0.71832275 3.8908386l0 3.8915405l0.71832275 3.8908691l1.4967346 3.711792l2.2745056 3.4117737l1.4372864 1.5568848l1.1967163 1.1372375l2.5745544 1.9157104l2.693451 1.3764648l2.8137512 1.0183411l2.8739014 0.47839355l2.8731995 0.11959839l2.8731995 -0.29934692l2.753601 -0.6581421l2.6340027 -1.0176697l2.5144043 -1.4365845l2.275177 -1.6765137l2.0353088 -2.094757l1.7359619 -2.3353271l1.4365845 -2.5738525l1.0176392 -2.9333496l0.59872437 -3.1130981l0.11959839 -1.6163635l0 -19.455627l-0.11959839 -0.777771l-1.0176697 -0.9581909l-0.71829224 -0.11959839z" fill-rule="evenodd"/><path fill="#f03748" d="m491.46378 272.6719l-0.71832275 0.11959839l-1.0176392 1.0176697l-0.060150146 0.71829224l0 17.779846l0.060150146 2.2745056l0.6581421 4.190216l1.436615 3.8313904l2.275177 3.4725952l1.5562134 1.616333l1.4967651 1.436615l3.412445 2.2150574l3.71109 1.5561829l3.8915405 0.71832275l3.9510193 0l3.8908691 -0.71832275l3.711792 -1.5561829l3.4117432 -2.2150574l1.4967651 -1.436615l1.1973877 -1.1973877l1.8555298 -2.5745544l1.4365845 -2.693451l0.9581909 -2.8137512l0.5385742 -2.8731995l0.119628906 -2.8739014l-0.29937744 -2.8731995l-0.71832275 -2.753601l-1.0176392 -2.6340027l-1.3764648 -2.5143738l-1.7359009 -2.2752075l-2.0353394 -2.0353088l-2.3353271 -1.7359314l-2.6339722 -1.436615l-2.87323 -1.0176392l-3.1130981 -0.59872437l-1.6758118 -0.11959839z" fill-rule="evenodd"/><path fill="#13202f" d="m466.02182 347.08206l0 5.0889587l-3.7712708 0l0 4.968628l3.7712708 0l0 7.781708l0.059448242 1.8562622l0.658844 2.2745056l0.71829224 1.2575378l0.8980713 1.0176392l1.1973877 0.777771l1.3764648 0.5392456l1.616333 0.23919678l0.9581909 0.060150146l1.7359619 -0.17974854l3.412445 -1.0176392l1.5562134 -0.8980713l-1.5562134 -4.5496826l-0.8980408 0.59869385l-2.1556091 0.8980408l-1.2568359 0.11959839l-0.59872437 -0.060150146l-1.1372375 -0.35879517l-0.8378906 -0.7784424l-0.47909546 -1.3169861l-0.060150146 -0.8980713l0 -7.3627625l7.363434 0l-1.6764832 -4.968628l-5.6869507 0l0 -5.0889587z" fill-rule="evenodd"/><path fill="#13202f" d="m480.02972 352.17102l6.824188 20.413147l6.106598 0l4.429413 -13.528809l4.430084 13.528809l6.105896 0l6.82489 -20.413147l-5.627472 0l-4.3098145 14.426849l-4.5496826 -14.426849l-5.6869507 0l-4.490265 14.366699l-4.369934 -14.366699z" fill-rule="evenodd"/><path fill="#13202f" d="m555.9366 341.9938l0 30.590363l5.328186 0l0 -8.500702l1.7954102 0l5.7470703 8.500702l6.6451416 0l-7.9019775 -11.015106l7.9019775 -9.398041l-6.6451416 0l-5.62677 7.123535l-1.9157104 0l0.059448242 -17.30075z" fill-rule="evenodd"/><path fill="#13202f" d="m415.1379 341.9938l0 30.590363l5.2680054 0l0 -11.792847l0.059448242 -0.8385925l0.71829224 -1.436615l1.1379395 -1.0770874l1.436615 -0.5392456l0.8378906 0l0.8980713 0.060150146l1.4365845 0.5385437l1.0176697 1.1973877l0.5392456 1.6163635l0 1.0777893l0 11.194153l5.3875732 0l0 -12.930786l0 -0.83792114l-0.29934692 -1.616333l-0.5392456 -1.436615l-0.8378906 -1.1973877l-1.0176392 -1.0771179l-1.1974182 -0.7784424l-1.4365845 -0.5385437l-1.5562134 -0.29934692l-0.8378906 0l-0.8385925 -0.060150146l-1.6163635 0.35949707l-1.4960632 0.6581421l-1.2575378 1.0176697l-0.5385437 0.658844l0 -12.511871z" fill-rule="evenodd"/><path fill="#13202f" d="m447.7034 356.8403l1.5562134 0.17907715l1.4372864 0.59869385l1.1967163 0.9581909l0.9581909 1.3170166l0.47909546 1.5561829l0.059448242 0.9581909l-0.059448242 1.0771179l-0.8385925 1.9758301l-1.4960632 1.4967651l-1.9758301 0.8378906l-1.1372681 0.11959839l-0.8980408 -0.060150146l-1.616333 -0.47839355l-1.3170166 -0.9581909l-0.957489 -1.1973877l-0.59872437 -1.436615l-0.17974854 -1.5562134l0.29937744 -1.5568848l0.7784424 -1.4960632l0.59869385 -0.658844l0.6581421 -0.6581421l1.4967651 -0.71832275l1.5561829 -0.29934692zm-1.1372375 -4.968628l-2.6340027 0.71829224l-2.3346558 1.3169861l-1.9758301 1.8555603l-1.436615 2.3346558l-0.7777405 2.753601l-0.060150146 1.5568848l0.060150146 1.4960632l0.7777405 2.754303l1.436615 2.3346558l1.9758301 1.9156799l2.3346558 1.3170166l2.6340027 0.6581421l2.753601 0l2.753601 -0.7784424l1.3169861 -0.71829224l0 1.1973877l5.2680054 0l0 -20.413147l-5.2680054 0l0 1.2568359l-1.3169861 -0.7784424l-2.753601 -0.7777405z" fill-rule="evenodd"/><path fill="#13202f" d="m550.3098 352.05072l-0.8980713 0.060150146l-1.616333 0.29934692l-1.3771362 0.6581421l-1.1973877 1.0176697l-0.4784546 0.658844l0 -2.5738525l-5.2679443 0l0 20.413147l5.3274536 0l0 -10.894806l0.06011963 -1.0777893l0.59869385 -1.6765137l1.1372681 -1.1372375l1.5562134 -0.5385437l0.89801025 -0.060150146l0.83795166 0l1.6764526 0.35949707l0.7784424 0.29934692l-0.06011963 -5.5673523l-0.95751953 -0.17974854l-1.0176392 -0.060150146z" fill-rule="evenodd"/><path fill="#13202f" d="m525.1665 356.78018l1.4967651 0.17974854l1.4967651 0.59869385l1.1973877 0.957489l0.89801025 1.3170166l0.5385742 1.5568848l0.060180664 0.8973694l-0.12030029 1.1379395l-0.83795166 1.9751587l-1.4967041 1.4967346l-1.9751587 0.8378906l-1.1372681 0.060150146l-0.8980713 0l-1.5568848 -0.5392456l-1.3169556 -0.89733887l-0.95751953 -1.2575684l-0.59869385 -1.4365845l-0.17974854 -1.5562134l0.23986816 -1.5568848l0.777771 -1.4960632l0.59869385 -0.658844l0.6588745 -0.59869385l1.4967041 -0.7784424l1.6156616 -0.23919678zm0.12030029 -5.0288086l-1.6765137 0.12030029l-3.0529175 0.957489l-2.5144043 1.7359619l-1.8555298 2.394806l-1.1372681 2.753601l-0.35949707 2.9333496l0.5385132 2.9934692l1.4967651 2.87323l1.1372681 1.2568359l1.2575684 1.1379395l2.873169 1.4960632l2.9935303 0.5392456l2.9333496 -0.35949707l2.753601 -1.1372375l2.394104 -1.8555603l1.7366333 -2.5144043l0.9574585 -3.052948l0.119628906 -1.6765137l-0.059448242 -1.1372375l-0.41967773 -2.0353088l-0.77770996 -1.9156799l-1.1372681 -1.6765137l-1.4373169 -1.4365845l-1.7359009 -1.1372681l-1.8555908 -0.7784424l-2.095459 -0.4189453l-1.0770874 -0.060150146z" fill-rule="evenodd"/><path fill="#13202f" d="m400.1718 341.93436l-2.2745056 0.11959839l-2.1556091 0.47842407l-2.1548767 0.7784424l-1.9751587 1.0176392l-1.7961121 1.3170166l-1.616333 1.616333l-1.3771667 1.7961121l-1.0770874 2.0954285l-0.7784424 2.2745056l-0.35882568 2.5144043l-0.060150146 1.3170166l0 1.1973877l0.41897583 2.3346558l0.658844 2.2150269l1.0770874 2.094757l1.3170166 1.8562622l1.616333 1.6758118l1.7961121 1.4365845l2.0954285 1.1372681l1.1372681 0.41964722l1.1372375 0.4189453l2.3346558 0.4189453l2.3346558 0.059448242l2.2752075 -0.23919678l2.2143555 -0.59869385l2.0954285 -0.95751953l1.9758606 -1.2575378l1.7954102 -1.5562134l0.7784424 -0.8980408l-4.011139 -3.352295l-1.1967163 1.2568359l-2.6340027 1.6765137l-2.9333496 0.71829224l-2.9333496 -0.11959839l-2.8137512 -1.0176392l-2.394806 -1.7359619l-1.7954102 -2.394806l-1.0176392 -2.9927979l-0.060150146 -1.7366333l0.060150146 -1.7359619l0.95751953 -2.9927979l1.7960815 -2.394806l2.394104 -1.7960815l2.754303 -0.95751953l2.9927979 -0.23919678l2.8731995 0.71829224l2.6941528 1.6758118l1.1973877 1.2575378l4.0706177 -3.2928467l-0.8980408 -1.0176392l-1.8555603 -1.6764832l-2.0353088 -1.2568665l-2.1555786 -0.8980408l-2.2745056 -0.59869385l-2.2150574 -0.17907715z" fill-rule="evenodd"/></g></svg>