<svg version="1.1" viewBox="0.0 0.0 960.0 540.0" fill="none" stroke="none" stroke-linecap="square" stroke-miterlimit="10" xmlns:xlink="http://www.w3.org/1999/xlink" xmlns="http://www.w3.org/2000/svg"><clipPath id="g100f5a22442_0_128.0"><path d="m0 0l960.0 0l0 540.0l-960.0 0l0 -540.0z" clip-rule="nonzero"/></clipPath><g clip-path="url(#g100f5a22442_0_128.0)"><path fill="#f5f5f5" d="m0 0l960.0 0l0 540.0l-960.0 0z" fill-rule="evenodd"/><path fill="#f03748" d="m314.16623 0l0.6390381 8.629723l0.10668945 8.735237l-0.10668945 8.948641l-1.704834 17.89728l-3.5151978 17.578362l-5.1133423 16.938152l-6.8181763 16.512543l-8.309631 15.660118l-9.907776 14.808884l-11.3992 13.9552765l-6.3925476 6.4980774l-6.071274 5.9657593l-13.10405 10.866882l-13.956467 9.480957l-14.8076935 8.202927l-15.446716 6.7126617l-15.980225 5.3255615l-16.512543 3.8352966l-16.832642 2.237152l-8.52301 0.4268036l-140.40994 0l0 23.863037l140.94344 0l9.694366 -0.5323181l19.069794 -2.4505615l18.74971 -4.26091l18.110672 -6.072464l17.577179 -7.563904l16.725937 -9.268738l15.873535 -10.760178l14.807678 -12.357147l7.0315857 -6.7114716l3.6219177 -3.7286072l6.8181763 -7.457199l6.4980774 -7.8840027l5.9669495 -8.096207l8.309601 -12.677246l9.480957 -17.790573l7.777313 -18.644188l5.75235 -19.175316l3.0895996 -14.914398l1.4914246 -10.0144615l0.95913696 -10.11998l0.42559814 -10.1211605l0.10671997 -5.1133404l-0.21340942 -8.735237l-0.5323181 -8.629723z" fill-rule="evenodd"/><path fill="#ffffff" d="m18.897638 30.443283l0 0c0 -7.05488 5.7191105 -12.773993 12.773993 -12.773993l896.65674 0c3.3878784 0 6.636963 1.345829 9.032593 3.741417c2.3955688 2.395588 3.741394 5.644703 3.741394 9.032576l0 481.7591c0 7.0548706 -5.719116 12.773987 -12.773987 12.773987l-896.65674 0c-7.054882 0 -12.773993 -5.719116 -12.773993 -12.773987z" fill-rule="evenodd"/><path fill="#12253a" d="m85.780975 46.738934c-2.9163437 -2.9145088 -7.662018 -2.9145088 -10.5783615 0c-1.3845215 1.3832703 -2.11306 3.179268 -2.1812744 4.9941254l0 7.0846252c0 0.3684845 0.29896545 0.6666069 0.6675873 0.6666069l6.4748764 0c2.276329 0.007980347 4.0751953 -0.63614273 5.6171722 -2.1789894c2.9141693 -2.9108849 2.9141693 -7.6511307 0 -10.566368z" fill-rule="evenodd"/><path fill="#f03748" d="m58.879612 52.431572c-2.9172401 2.9136124 -2.9172401 7.6548424 0 10.568455c1.3845673 1.3832207 3.1822472 2.1110802 4.99881 2.179226l7.0912666 0c0.36882782 0 0.6672287 -0.29868317 0.6672287 -0.66696167l0 -6.468811c0.007987976 -2.2741966 -0.636734 -4.071369 -2.1810303 -5.611908c-2.9136124 -2.9114342 -7.658306 -2.9114342 -10.576275 0z" fill-rule="evenodd"/><path fill="#f03748" d="m64.57753 79.30759c2.9163437 2.914505 7.6620255 2.914505 10.578369 0c1.3845139 -1.3832703 2.11306 -3.179268 2.1812668 -4.9941254l0 -7.0846252c0 -0.3684845 -0.29896545 -0.6666107 -0.6675873 -0.6666107l-6.4748764 0c-2.276329 -0.007980347 -4.0751877 0.63614655 -5.6171722 2.1789932c-2.9141655 2.910881 -2.9141655 7.6511307 0 10.566368z" fill-rule="evenodd"/><path fill="#f03748" d="m91.47847 73.61533c2.9172363 -2.9136124 2.9172363 -7.654846 0 -10.568459c-1.3845673 -1.3832207 -3.182251 -2.1110802 -4.99881 -2.179226l-7.091263 0c-0.36883545 0 -0.6672363 0.29868317 -0.6672363 0.66696167l0 6.468807c-0.007987976 2.2742004 0.63674164 4.071373 2.1810303 5.6119156c2.9136124 2.9114304 7.65831 2.9114304 10.576279 0z" fill-rule="evenodd"/><path fill="#12253a" d="m169.93689 69.50038c-0.8604584 0.5090027 -1.9101562 1.1474152 -3.1564026 1.1474152c-1.2286072 0 -2.2825775 -0.6573868 -2.2807465 -2.460472l0.010345459 -5.313492l5.412201 0l-1.2255707 -3.569931l-4.1884613 0l0 -3.6691475l-3.8695831 0l0 3.6691475l-2.7359161 0l0 3.4733086l2.7359161 0.09662247l-0.009140015 5.6188965c-0.007904053 3.7398834 1.8553925 5.766411 5.491913 5.7733154c1.9004211 0.0034484863 3.6608734 -0.7298584 4.9253845 -1.5063095c0 0 -1.1099396 -3.2593536 -1.1099396 -3.2593536z" fill-rule="evenodd"/><path fill="#12253a" d="m189.19102 69.733925l3.1700897 -10.40538l4.1382294 0l-4.998932 14.710144l-4.5160522 0l-3.2409363 -9.765221l-3.2456512 9.765221l-4.4841766 0l-5.0166473 -14.710144l4.1996307 0l3.2031555 10.340004l3.3105774 -10.340004l4.164215 0c0 0 3.3164978 10.40538 3.3164978 10.40538z" fill-rule="evenodd"/><path fill="#12253a" d="m230.72725 64.421745l1.4022217 0.0020370483l4.148041 -5.12735l4.84848 0l-5.802597 6.7853928l5.8212433 7.9254837l-4.8644714 0l-4.2179413 -6.130554l-1.3349762 -0.0010223389l0 6.1315765l-3.9642792 0l0 -22.066315l3.9642792 0c0 0 0 12.480751 0 12.480751z" fill-rule="evenodd"/><path fill="#12253a" d="m131.47688 59.03695c-1.6075745 -0.0030670166 -3.1672668 0.4995575 -4.215576 1.9267159l0 -9.022671l-3.865715 0l0 22.057114l3.865715 0l0 -8.514938c0.19024658 -1.8705254 1.5290375 -2.803238 3.1027832 -2.8011932c1.8042145 0.003063202 2.8608246 1.151329 2.858902 3.2374115l0 8.087921l3.9391327 0l0.016601562 -9.333237c0.007019043 -3.3487663 -2.3685913 -5.630993 -5.7018433 -5.637123z" fill-rule="evenodd"/><path fill="#12253a" d="m147.46393 70.60363c-2.2347565 0 -4.047058 -1.7803574 -4.047058 -3.9769287c0 -2.1965637 1.8123016 -3.976925 4.047058 -3.976925c2.2354736 0 4.047043 1.7803612 4.047043 3.976925c0 2.1965714 -1.8115692 3.9769287 -4.047043 3.9769287zm4.047043 -11.332161l0 0.8810234c-1.1782532 -0.71341324 -2.561554 -1.1317406 -4.047043 -1.1317406c-4.2738647 0 -7.739044 3.4050713 -7.739044 7.6059494c0 4.200882 3.4651794 7.605957 7.739044 7.605957c1.4854889 0 2.8687897 -0.41832733 4.047043 -1.1317444l0 0.8810272l3.8658905 0l0 -14.710472c0 0 -3.8658905 0 -3.8658905 0z" fill-rule="evenodd"/><path fill="#12253a" d="m224.05278 59.32616c-0.42175293 -0.092552185 -0.89912415 -0.14945602 -1.4653931 -0.15151215c-1.7999725 -0.0020561218 -3.1545563 0.60398865 -4.081253 1.9586754l0 -1.8626938l-3.913086 0l0 14.710281l3.913086 0l0 -7.8580093c0.0048217773 -2.1458359 1.3173523 -3.243431 3.152359 -3.2400055c0.8036499 0.001373291 1.7417297 0.178936 2.393402 0.46481705l8.8500977E-4 -0.0034255981c0 0 0 -4.0181274 0 -4.0181274z" fill-rule="evenodd"/><path fill="#12253a" d="m204.3079 70.60363c-2.2348938 0 -4.0463257 -1.7803574 -4.0463257 -3.9769287c0 -2.1965637 1.8114319 -3.976925 4.0463257 -3.976925c2.234909 0 4.0463257 1.7803612 4.0463257 3.976925c0 2.1965714 -1.8114166 3.9769287 -4.0463257 3.9769287zm0 -11.582878c-4.274185 0 -7.738678 3.4050713 -7.738678 7.6059494c0 4.200882 3.4644928 7.605957 7.738678 7.605957c4.274185 0 7.738678 -3.405075 7.738678 -7.605957c0 -4.200878 -3.4644928 -7.6059494 -7.738678 -7.6059494z" fill-rule="evenodd"/><path fill="#12253a" d="m120.73977 69.957726l-2.9162216 -2.397667c-1.3516159 1.6171799 -3.4020996 2.6520462 -5.6932144 2.6520462c-4.0603943 0 -7.363846 -3.246605 -7.363846 -7.237953c0 -3.9913483 3.3034515 -7.237957 7.363846 -7.237957c2.2689896 0 4.301033 1.0144386 5.652649 2.605053l2.956787 -2.3731499l0.062698364 0c-2.0587845 -2.4589653 -5.1787567 -4.0271034 -8.672134 -4.0271034c-6.2003098 0 -11.226021 4.9393806 -11.226021 11.033157c0 6.093773 5.025711 11.033157 11.226021 11.033157c3.502594 0 6.6299515 -1.5773392 8.688728 -4.0475388c0 0 -0.0792923 -0.0020446777 -0.0792923 -0.0020446777z" fill-rule="evenodd"/><path fill="#f03748" d="m934.29114 354.34647l-10.208862 0.41680908l-10.1050415 0.93743896l-10.105103 1.5626831l-9.895752 2.1879272l-9.792908 2.7085266l-9.583557 3.2290955l-9.376099 3.7497253l-9.166748 4.3758545l-8.9592285 4.7917786l-8.646118 5.417053l-8.437744 5.8338623l-8.021851 6.354492l-7.708679 6.875061l-3.7497559 3.645935l-6.562866 6.771332l-11.56311 13.959412l-9.792908 14.793121l-8.125549 15.625885l-6.458252 16.458649l-4.791748 17.396973l-3.1253662 18.439056l-1.4589233 19.5849l-0.103759766 10.312561l0 0.5206299l20.730713 0l0 -0.5206299l0 -9.271362l1.3543091 -17.605408l2.708496 -16.459534l4.166565 -15.52124l5.6254272 -14.584686l7.083496 -13.750122l8.750793 -13.022034l10.312622 -12.500519l5.9385376 -6.0422974l3.3328857 -3.2290955l6.9797363 -6.146942l7.29187 -5.7292175l7.5012207 -5.3124084l7.8125 -4.7926636l8.125549 -4.2712097l8.229309 -3.85437l8.542419 -3.3328857l8.646179 -2.8131714l8.855408 -2.3954468l8.958374 -1.7710876l9.062988 -1.3542786l9.062988 -0.8336487l9.271423 -0.20843506l9.271423 0.31307983l9.271362 0.8327637l4.583374 0.62527466l0 -20.834503l-5.103943 -0.62527466l-10.313477 -0.8336487l-10.312622 -0.103759766z" fill-rule="evenodd"/><path fill="#000000" fill-opacity="0.0" d="m199.27559 503.2758l561.44885 0l0 12.913361l-561.44885 0z" fill-rule="evenodd"/><path fill="#13202f" d="m455.5359 505.7189q1.65625 0 2.828125 1.15625q1.171875 1.15625 1.171875 2.8125q0 1.6875 -1.171875 2.8594055q-1.171875 1.15625 -2.828125 1.15625q-1.65625 0 -2.84375 -1.171875q-1.171875 -1.1719055 -1.171875 -2.8437805q0 -1.640625 1.1875 -2.796875q1.1875 -1.171875 2.828125 -1.171875zm-3.28125 3.96875q0 1.453125 0.9375 2.4375305q0.953125 0.984375 2.34375 0.984375q1.390625 0 2.328125 -0.984375q0.953125 -0.9844055 0.953125 -2.4375305q0 -1.40625 -0.953125 -2.390625q-0.9375 -0.984375 -2.328125 -0.984375q-1.390625 0 -2.34375 0.984375q-0.9375 0.984375 -0.9375 2.390625zm3.390625 -2.40625q0.796875 0 1.328125 0.421875q0.53125 0.421875 0.671875 1.203125l-0.671875 0q-0.109375 -0.5 -0.46875 -0.765625q-0.34375 -0.265625 -0.859375 -0.265625q-0.75 0 -1.1875 0.515625q-0.4375 0.5 -0.4375 1.296875q0 0.796875 0.453125 1.34375q0.46875 0.53125 1.203125 0.53125q0.5 0 0.859375 -0.28125q0.359375 -0.296875 0.4375 -0.796875l0.6875 0q-0.1875 0.78125 -0.734375 1.234375q-0.53125 0.43753052 -1.265625 0.43753052q-1.046875 0 -1.703125 -0.6719055q-0.65625 -0.6875 -0.65625 -1.765625q0 -1.078125 0.625 -1.75q0.640625 -0.6875 1.71875 -0.6875zm11.171051 -1.5625q1.265625 0 2.109375 0.65625q0.859375 0.65625 1.015625 1.828125l-1.0 0q-0.171875 -0.78125 -0.734375 -1.203125q-0.5625 -0.421875 -1.40625 -0.421875q-1.203125 0 -1.890625 0.859375q-0.6875 0.84375 -0.6875 2.21875q0 1.453125 0.671875 2.328125q0.671875 0.8594055 1.921875 0.8594055q0.921875 0 1.515625 -0.59375q0.609375 -0.5937805 0.671875 -1.5937805l1.015625 0q-0.15625 1.4687805 -1.03125 2.2656555q-0.859375 0.78125 -2.265625 0.78125q-1.625 0 -2.578125 -1.078125q-0.9375 -1.0937805 -0.9375 -2.8906555q0 -1.78125 0.96875 -2.890625q0.984375 -1.125 2.640625 -1.125zm5.2268677 0.1875l0 2.90625l0.015625 0q0.203125 -0.4375 0.671875 -0.6875q0.46875 -0.25 1.0625 -0.25q1.0 0 1.453125 0.515625q0.453125 0.515625 0.453125 1.453125l0 3.6719055l-0.90625 0l0 -3.7656555q0 -0.46875 -0.3125 -0.765625q-0.296875 -0.3125 -0.828125 -0.3125q-0.75 0 -1.1875 0.484375q-0.421875 0.46875 -0.421875 1.21875l0 3.1406555l-0.90625 0l0 -7.6094055l0.90625 0zm7.2702637 1.96875q1.125 0 1.59375 0.40625q0.46875 0.40625 0.46875 1.078125q0 2.8594055 0 3.1719055q0 0.3125 0.28125 0.3125q0.0625 0 0.140625 -0.015625q0.078125 -0.015625 0.140625 -0.03125l0 0.703125q-0.125 0.0625 -0.296875 0.09375q-0.15625 0.046875 -0.34375 0.046875q-0.375 0 -0.578125 -0.203125q-0.203125 -0.21875 -0.203125 -0.640625q-0.359375 0.421875 -0.84375 0.640625q-0.484375 0.203125 -1.09375 0.203125q-0.84375 0 -1.328125 -0.390625q-0.484375 -0.40625 -0.484375 -1.15625q0 -0.7344055 0.46875 -1.1719055q0.46875 -0.4375 2.21875 -0.65625q0.59375 -0.078125 0.796875 -0.21875q0.21875 -0.15625 0.21875 -0.453125q0 -0.46875 -0.296875 -0.6875q-0.28125 -0.234375 -0.921875 -0.234375q-0.671875 0 -1.015625 0.265625q-0.328125 0.25 -0.359375 0.78125l-0.90625 0q0.046875 -0.90625 0.640625 -1.375q0.609375 -0.46875 1.703125 -0.46875zm-1.59375 4.1562805q0 0.390625 0.28125 0.609375q0.28125 0.203125 0.78125 0.203125q0.765625 0 1.21875 -0.375q0.46875 -0.390625 0.46875 -0.8594055l0 -0.9375q-0.234375 0.15625 -0.609375 0.21875q-0.359375 0.046875 -0.953125 0.140625q-0.609375 0.078125 -0.90625 0.328125q-0.28125 0.234375 -0.28125 0.6719055zm6.317322 -5.6719055l0 1.640625l1.09375 0l0 0.8125l-1.09375 0l0 3.4375305q0 0.421875 0.265625 0.453125q0.28125 0.015625 0.578125 0.015625l0.25 0l0 0.796875l-0.734375 0q-0.75 0 -1.015625 -0.265625q-0.25 -0.265625 -0.25 -0.890625l0 -3.5469055l-0.9375 0l0 -0.8125l0.9375 0l0 -1.640625l0.90625 0zm2.606079 1.640625l1.25 4.5156555l0.015625 0l1.109375 -4.5156555l0.984375 0l1.15625 4.4844055l0 0.03125l0.015625 0l1.234375 -4.5156555l0.953125 0l-1.765625 5.5000305l0 0.015625l-0.96875 0l-1.109375 -4.3594055l-0.015625 -0.015625l-0.015625 0l-1.109375 4.3750305l-0.96875 0l-1.765625 -5.5156555l1.0 0zm9.950439 -0.125q1.25 0 1.953125 0.8125q0.71875 0.8125 0.71875 2.078125q0 1.2812805 -0.734375 2.0781555q-0.71875 0.796875 -1.9375 0.796875q-1.203125 0 -1.9375 -0.78125q-0.734375 -0.78125 -0.734375 -2.0937805q0 -1.3125 0.71875 -2.09375q0.71875 -0.796875 1.953125 -0.796875zm-1.71875 2.890625q0 0.953125 0.484375 1.5156555q0.484375 0.5625 1.234375 0.5625q0.734375 0 1.21875 -0.5625q0.5 -0.5781555 0.5 -1.5156555q0 -0.9375 -0.484375 -1.515625q-0.484375 -0.578125 -1.25 -0.578125q-0.71875 0 -1.21875 0.578125q-0.484375 0.5625 -0.484375 1.515625zm8.197144 -2.890625q0.03125 0 0.046875 0q0.03125 0 0.078125 0l0 0.96875q-1.015625 0 -1.5 0.546875q-0.484375 0.53125 -0.484375 1.65625l0 2.4687805l-0.90625 0l0 -5.5156555l0.84375 0l0 1.171875l0.03125 0q0.3125 -0.65625 0.765625 -0.96875q0.46875 -0.328125 1.125 -0.328125zm1.7673645 -1.96875l0 4.515625l2.515625 -2.421875l1.21875 0l-2.1875 2.015625l2.34375 3.5000305l-1.15625 0l-1.875 -2.8750305l-0.859375 0.78125l0 2.0937805l-0.90625 0l0 -7.6094055l0.90625 0z" fill-rule="nonzero"/><path fill="#000000" fill-opacity="0.0" d="m302.7953 178.96457l511.937 0l0 90.33072l-511.937 0z" fill-rule="evenodd"/><path fill="#13202f" d="m329.13904 183.30707q1.484375 2.703125 2.96875 5.828125q-0.125 11.78125 -5.6875 17.71875q-5.5625 5.9375 -17.140625 7.015625l-0.828125 -4.296875q9.21875 -0.890625 13.625 -4.9375q4.421875 -4.0625 5.078125 -12.484375l-21.34375 0l0 -4.40625l21.5625 0q-0.5625 -1.078125 -1.5 -2.8125l3.265625 -1.625zm7.96875 4.671875l-3.328125 1.59375q-1.875 -3.59375 -2.703125 -5.125l3.328125 -1.65625q1.59375 2.90625 2.703125 5.1875zm3.8125305 7.53125l27.3125 0l0 0.796875q0 8.28125 -5.359375 12.6875q-5.359375 4.390625 -16.40625 4.984375l-0.703125 -4.15625q7.59375 -0.421875 11.96875 -2.8125q4.390625 -2.390625 5.4375 -7.34375l-22.25 0l0 -4.15625zm2.53125 -4.859375l0 -4.15625l22.65625 0l0 4.15625l-22.65625 0zm57.359406 1.671875q-0.109375 7.3125 -1.953125 11.734375q-1.828125 4.40625 -5.65625 6.6875q-3.828125 2.265625 -10.34375 2.953125l-0.796875 -3.84375q5.609375 -0.734375 8.65625 -2.515625q3.046875 -1.78125 4.4375 -5.34375q1.390625 -3.578125 1.484375 -9.890625l4.171875 0.21875zm-22.953125 1.453125l3.890625 -0.9375q1.0625 3.703125 2.484375 9.25l-3.984375 0.9375q-1.109375 -4.640625 -2.390625 -9.25zm7.453125 -0.90625l3.984375 -0.9375q1.359375 4.921875 2.5 9.5l-3.984375 0.9375q-1.109375 -4.578125 -2.5 -9.5zm46.296906 -0.375l-11.53125 0q-2.1875 5.546875 -6.859375 10.015625l-3.296875 -2.8125q3.015625 -2.984375 4.9375 -6.84375q1.921875 -3.859375 2.40625 -7.890625l4.5 0.25q-0.125 1.453125 -0.484375 3.125l15.28125 0l0 0.796875q0 12.09375 -5.515625 17.84375q-5.5 5.75 -17.703125 6.75l-0.6875 -4.15625q9.734375 -0.96875 14.046875 -4.78125q4.328125 -3.8125 4.90625 -12.296875zm37.21878 -1.5l4.40625 0.765625q-2.015625 10.953125 -8.078125 16.046875q-6.0625 5.09375 -18.1875 6.171875l-0.6875 -4.40625q10.8125 -0.9375 15.796875 -5.015625q4.984375 -4.09375 6.75 -13.5625zm1.5625 -2.25l-3.25 1.5625q-1.109375 -2.28125 -2.640625 -5.03125l3.265625 -1.625q1.421875 2.671875 2.625 5.09375zm5.34375 -0.40625l-3.328125 1.59375q-1.875 -3.609375 -2.703125 -5.140625l3.328125 -1.65625q1.59375 2.90625 2.703125 5.203125zm-30.015625 5.984375q4.546875 0.765625 11.4375 2.21875l-0.859375 4.09375q-6.203125 -1.3125 -11.40625 -2.1875l0.828125 -4.125zm1.625 -8.421875q5.515625 0.90625 11.78125 2.1875l-0.859375 4.15625q-6.28125 -1.28125 -11.78125 -2.1875l0.859375 -4.15625zm38.75003 5.453125l4.359375 -0.734375l0.9375 5.234375l13.421875 -2.671875l0.765625 3.953125q-0.671875 2.8125 -2.234375 5.5625q-1.546875 2.75 -3.625 4.65625l-3.296875 -2.625q3.125 -3.09375 4.546875 -6.65625l-8.875 1.765625l2.421875 13.6875l-4.359375 0.734375l-2.40625 -13.5625l-6.125 1.21875l-0.734375 -3.953125l6.140625 -1.203125l-0.9375 -5.40625zm53.34378 0.96875q-0.109375 7.3125 -1.953125 11.734375q-1.828125 4.40625 -5.65625 6.6875q-3.828125 2.265625 -10.34375 2.953125l-0.796875 -3.84375q5.609375 -0.734375 8.65625 -2.515625q3.046875 -1.78125 4.4375 -5.34375q1.390625 -3.578125 1.484375 -9.890625l4.171875 0.21875zm-22.953125 1.453125l3.890625 -0.9375q1.0625 3.703125 2.484375 9.25l-3.984375 0.9375q-1.109375 -4.640625 -2.390625 -9.25zm7.453125 -0.90625l3.984375 -0.9375q1.359375 4.921875 2.5 9.5l-3.984375 0.9375q-1.109375 -4.578125 -2.5 -9.5zm46.296875 -0.375l-11.53125 0q-2.1875 5.546875 -6.859375 10.015625l-3.296875 -2.8125q3.015625 -2.984375 4.9375 -6.84375q1.921875 -3.859375 2.40625 -7.890625l4.5 0.25q-0.125 1.453125 -0.484375 3.125l15.28125 0l0 0.796875q0 12.09375 -5.515625 17.84375q-5.5 5.75 -17.703125 6.75l-0.6875 -4.15625q9.734375 -0.96875 14.046875 -4.78125q4.328125 -3.8125 4.90625 -12.296875zm38.78131 16.875l0.390625 3.921875q-4.578125 0.6875 -9.015625 0.6875q-6.515625 0 -9.390625 -1.546875q-2.875 -1.546875 -2.875 -4.796875q0 -2.59375 2.40625 -4.796875q2.40625 -2.203125 7.265625 -3.765625q-0.796875 -1.703125 -2.953125 -1.703125q-3.671875 0 -8.703125 7.046875l-3.640625 -2.1875q4.0625 -5.65625 6.34375 -10.671875l-5.921875 0l0 -3.671875l7.453125 0q0.6875 -1.84375 1.34375 -3.84375l4.484375 0.828125q-0.421875 1.25 -1.109375 3.015625l14.40625 0l0 3.671875l-15.90625 0q-0.40625 0.96875 -1.3125 2.90625l0.03125 0.078125q1.90625 -0.765625 3.578125 -0.765625q4.640625 0 6.265625 4.15625q3.703125 -0.765625 7.34375 -1.171875l0.34375 3.8125q-3.046875 0.34375 -6.78125 1.109375q0.3125 2.28125 0.3125 5.359375l-4.609375 0q0 -2.65625 -0.140625 -4.1875q-2.84375 0.9375 -4.359375 2.0625q-1.5 1.125 -1.5 2.234375q0 0.96875 0.515625 1.578125q0.53125 0.609375 2.25 1.03125q1.734375 0.40625 4.859375 0.40625q3.53125 0 8.625 -0.796875zm15.453125 -16.359375l0 22.453125l-4.640625 0l0 -15.109375q-1.375 2.1875 -2.484375 3.40625l-1.8125 -4.65625q5.34375 -6.296875 7.140625 -15.171875l4.265625 0.828125q-0.796875 4.609375 -2.46875 8.25zm23.84375 -2.25l-9.703125 0l0 5.015625l8.671875 0l0 3.8125l-8.671875 0l0 5.140625l8.671875 0l0 3.953125l-8.671875 0l0 6.78125l-4.734375 0l0 -24.703125l-0.484375 0q-2.15625 5.125 -4.890625 9.421875l-3.671875 -2.8125q4.125 -6.40625 6.4375 -13.828125l4.40625 0.90625q-0.25 0.828125 -0.796875 2.5l13.4375 0l0 3.8125zm6.656311 4.265625q8.421875 -2.015625 12.765625 -2.015625q10.671875 0 10.671875 8.90625q0 11.234375 -18.234375 11.234375l-0.3125 -3.953125q7.484375 0 10.78125 -1.734375q3.296875 -1.734375 3.296875 -5.234375q0 -2.671875 -1.578125 -3.90625q-1.578125 -1.25 -5.046875 -1.25q-3.328125 0 -11.5 1.90625l-0.84375 -3.953125zm32.125 -7.390625q14.0 0 28.5 -0.6875l0.171875 4.15625q-8.28125 0.6875 -12.515625 3.640625q-4.234375 2.9375 -4.234375 7.171875q0 3.46875 2.359375 5.484375q2.359375 2.0 6.203125 2.0q2.015625 0 4.234375 -0.40625l0.515625 4.21875q-2.59375 0.484375 -4.984375 0.484375q-6.0625 0 -9.671875 -3.078125q-3.609375 -3.09375 -3.609375 -8.25q0 -3.1875 1.96875 -6.03125q1.984375 -2.84375 5.625 -4.78125l0 -0.078125q-7.59375 0.3125 -14.5625 0.3125l0 -4.15625zm47.171936 22.640625l0 -3.6875l-14.109375 0l0 -3.9375l14.109375 0l0 -2.46875l3.265625 0q1.34375 -0.9375 3.453125 -2.5625l-15.65625 0l0 -1.3125l-4.125 0l0 -8.078125l4.4375 0q-0.796875 -1.484375 -1.703125 -3.015625l4.015625 -1.453125q1.1875 1.90625 2.4375 4.46875l3.53125 0q-0.90625 -1.796875 -1.84375 -3.359375l4.03125 -1.453125q1.109375 1.796875 2.53125 4.8125l3.046875 0q1.375 -2.359375 2.421875 -4.578125l4.125 0.96875q-0.765625 1.703125 -1.84375 3.609375l4.40625 0l0 8.078125l-4.15625 0l0 1.3125q-2.90625 2.84375 -6.0 5.03125l11.203125 0l0 3.9375l-12.828125 0l0 4.40625q0 1.625 -0.109375 2.375q-0.09375 0.75 -0.734375 1.25q-0.640625 0.5 -1.5625 0.578125q-0.921875 0.09375 -2.96875 0.09375q-1.0 0 -5.6875 -0.171875l-0.203125 -3.84375q4.265625 0.171875 5.203125 0.171875q0.96875 0 1.140625 -0.15625q0.171875 -0.15625 0.171875 -1.015625zm12.0625 -18.484375l-20.65625 0l0 2.078125l20.65625 0l0 -2.078125zm27.171875 8.5q2.046875 2.3125 2.84375 3.875q0.796875 1.5625 0.796875 3.21875q0 3.328125 -2.34375 5.296875q-2.34375 1.984375 -6.21875 1.984375q-3.390625 0 -6.3125 -1.625l1.53125 -3.84375q3.109375 1.3125 4.53125 1.3125q1.703125 0 2.75 -0.859375q1.0625 -0.875 1.0625 -2.265625q0 -1.171875 -0.625 -2.296875q-0.609375 -1.125 -2.390625 -3.0q-1.796875 -1.90625 -2.5625 -3.375q-0.765625 -1.46875 -0.765625 -3.0q0 -2.765625 3.234375 -5.34375l0 -0.0625l-8.421875 0l0 -3.953125l14.828125 0l3.53125 -1.765625q1.59375 2.953125 2.953125 5.609375l-3.578125 1.703125q-0.828125 -1.65625 -2.5625 -4.8125l0 3.84375q-2.390625 0.625 -3.765625 1.84375q-1.359375 1.203125 -1.359375 2.484375q0 1.046875 0.609375 2.125q0.609375 1.0625 2.234375 2.90625zm13.96875 -11.375l-3.640625 1.734375q-1.5625 -3.015625 -3.015625 -5.609375l3.640625 -1.84375q1.25 2.25 3.015625 5.71875zm-9.75 9.78125l3.890625 -1.765625q3.296875 5.984375 5.328125 12.40625l-4.046875 1.203125q-1.9375 -6.265625 -5.171875 -11.84375zm-19.1875 -1.28125l4.15625 1.0q-1.703125 6.265625 -4.859375 12.375l-3.90625 -1.59375q2.9375 -5.828125 4.609375 -11.78125z" fill-rule="nonzero"/><path fill="#13202f" d="m309.3109 240.47519l0 1.796875l5.890625 0l0 -1.796875l-5.890625 0zm0 -2.84375l5.890625 0l0 -1.765625l-5.890625 0l0 1.765625zm21.625 2.84375l-6.234375 0l0 1.796875l6.234375 0l0 -1.796875zm0 -2.84375l0 -1.765625l-6.234375 0l0 1.765625l6.234375 0zm-26.0625 -5.171875l14.203125 0l0 12.890625l-9.765625 0l0 17.78125l-4.4375 0l0 -30.671875zm6.140625 24.09375l0 -3.09375l7.03125 0l0 -1.421875l-6.65625 0l0 -3.078125l3.5 0q-0.90625 -1.421875 -1.59375 -2.390625l3.703125 -0.6875q1.15625 1.453125 2.1875 3.078125l1.90625 0q1.3125 -1.625 2.078125 -3.046875l3.75 0.515625q-0.53125 0.96875 -1.640625 2.53125l3.578125 0l0 3.078125l-6.65625 0l0 1.421875l7.03125 0l0 3.09375l-5.4375 0q1.453125 1.171875 2.84375 2.53125q1.765625 0.140625 2.5625 0.140625q1.25 0 1.484375 -0.21875q0.25 -0.234375 0.25 -1.421875l0 -12.234375l-10.125 0l0 -12.890625l14.5625 0l0 24.921875q0 1.421875 -0.0625 2.234375q-0.046875 0.8125 -0.28125 1.515625q-0.21875 0.71875 -0.53125 1.03125q-0.296875 0.3125 -0.984375 0.53125q-0.671875 0.234375 -1.453125 0.28125q-0.78125 0.0625 -2.125 0.0625q-1.1875 0 -3.46875 -0.1875l-0.078125 -1.140625l-1.765625 0.828125q-2.171875 -2.59375 -4.21875 -4.421875q-2.5 2.875 -7.625 4.46875l-2.296875 -3.09375q5.03125 -1.375 6.515625 -2.9375l-5.984375 0zm52.21878 -6.0q1.5625 -3.734375 2.15625 -10.328125l-4.546875 0q-0.40625 1.078125 -1.0 2.46875l1.515625 -0.28125q0.703125 5.015625 1.875 8.140625zm-15.03125 5.34375q1.171875 -1.21875 1.90625 -2.8125l-3.578125 0q-0.6875 1.25 -1.078125 1.875q0.25 0.0625 2.75 0.9375zm1.96875 -19.171875q1.390625 -2.28125 2.359375 -4.8125l3.46875 1.140625q-0.9375 2.390625 -2.390625 4.78125l1.859375 0l0 3.359375l-4.5 0q1.90625 1.421875 3.609375 3.046875q2.765625 -5.15625 4.5625 -12.953125l4.03125 0.515625q-0.421875 2.21875 -1.046875 4.46875l9.078125 0l0 3.953125l-1.796875 0q-0.765625 9.5625 -3.75 14.65625q1.984375 2.46875 5.625 4.546875l-1.875 3.53125q-3.921875 -2.140625 -6.203125 -4.78125q-2.5 2.640625 -6.71875 4.78125l-1.734375 -2.8125l-1.28125 2.1875q-2.4375 -1.34375 -4.546875 -2.3125q-3.609375 2.453125 -8.9375 3.109375l-1.21875 -3.390625q3.609375 -0.484375 5.9375 -1.5q-1.953125 -0.71875 -4.890625 -1.546875q1.203125 -1.84375 2.109375 -3.609375l-3.015625 0l0 -3.328125l4.546875 0q0.234375 -0.59375 0.71875 -1.90625l4.4375 0.421875q-0.0625 0.234375 -0.234375 0.75q-0.171875 0.5 -0.28125 0.734375l8.390625 0l0 3.328125l-2.296875 0q-0.828125 2.453125 -2.3125 4.265625q1.859375 0.859375 3.328125 1.59375q3.5 -1.875 5.578125 -4.296875q-1.734375 -3.296875 -2.78125 -8.109375q-0.578125 1.140625 -1.515625 2.625l-3.296875 -2.484375l-0.6875 0.796875q-1.25 -1.5625 -2.8125 -3.15625l0 3.21875l-4.15625 0l0 -3.5q-2.1875 2.734375 -4.828125 4.640625l-2.203125 -3.078125q3.1875 -2.109375 5.359375 -4.40625l-4.75 0l0 -3.359375l2.5 0q-1.203125 -2.5625 -2.359375 -4.4375l3.328125 -1.390625q1.390625 2.296875 2.5 4.75l-2.640625 1.078125l3.09375 0l0 -6.09375l4.15625 0l0 6.09375l3.328125 0l-2.84375 -1.109375zm31.328156 3.359375l2.984375 0l0 -3.5625l-2.953125 0l0 1.65625q0 1.328125 -0.03125 1.90625zm20.40625 15.765625l-10.109375 0l0 2.921875l13.234375 0l0 3.640625l-31.1875 0l0 -3.640625l13.234375 0l0 -2.921875l-10.5625 0l0 -3.453125l10.5625 0l0 -1.90625l-2.59375 0l0 -6.6875l-3.328125 0q-0.796875 5.09375 -4.1875 8.171875l-3.375 -2.875q1.390625 -1.25 2.125 -2.421875q0.75 -1.1875 1.109375 -2.875l-3.265625 0l0 -3.71875l3.640625 0q0.03125 -0.578125 0.03125 -1.90625l0 -1.65625l-2.96875 0l0 -3.71875l17.421875 0l0 3.71875l-2.765625 0l0 3.5625l2.765625 0l0 3.71875l-2.765625 0l0 5.1875l2.875 0l0 3.40625l10.109375 0l0 3.453125zm-8.765625 -9.96875l0 -12.828125l4.09375 0l0 12.828125l-4.09375 0zm7.046875 -13.515625l4.421875 0l0 12.46875q0 1.390625 -0.046875 2.21875q-0.046875 0.828125 -0.25 1.546875q-0.1875 0.703125 -0.46875 1.015625q-0.265625 0.3125 -0.875 0.546875q-0.609375 0.21875 -1.296875 0.28125q-0.6875 0.046875 -1.90625 0.046875q-1.734375 0 -4.75 -0.171875l-0.203125 -3.8125q2.625 0.171875 3.984375 0.171875q0.96875 0 1.171875 -0.21875q0.21875 -0.234375 0.21875 -1.375l0 -12.71875zm31.046906 7.625l-21.34375 0l0 -4.40625l20.78125 0q0.078125 -2.078125 1.578125 -3.515625q1.515625 -1.4375 3.625 -1.4375q2.15625 0 3.671875 1.53125q1.53125 1.515625 1.53125 3.65625q0 2.125 -1.484375 3.640625q-1.46875 1.5 -3.578125 1.5625q-0.96875 9.703125 -6.53125 14.703125q-5.5625 4.984375 -16.140625 5.984375l-0.828125 -4.296875q9.21875 -0.890625 13.640625 -4.9375q4.421875 -4.0625 5.078125 -12.484375zm6.234375 -2.5625q0.65625 -0.671875 0.65625 -1.59375q0 -0.9375 -0.65625 -1.59375q-0.65625 -0.671875 -1.59375 -0.671875q-0.9375 0 -1.59375 0.671875q-0.65625 0.65625 -0.65625 1.59375q0 0.921875 0.65625 1.59375q0.65625 0.65625 1.59375 0.65625q0.9375 0 1.59375 -0.65625zm12.5156555 22.90625l-4.859375 0l0 -25.4375l27.25 0l0 25.4375l-22.390625 0zm0 -4.234375l17.53125 0l0 -16.984375l-17.53125 0l0 16.984375zm60.546906 -20.0l-3.328125 1.59375q-1.875 -3.609375 -2.703125 -5.125l3.328125 -1.671875q1.59375 2.921875 2.703125 5.203125zm-11.375 4.921875l-11.296875 0q-2.1875 5.34375 -6.71875 9.671875l-3.296875 -2.8125q3.015625 -2.96875 4.9375 -6.828125q1.921875 -3.875 2.40625 -7.890625l4.515625 0.234375q-0.140625 1.5625 -0.5625 3.46875l12.171875 0q-1.046875 -2.015625 -2.015625 -3.8125l3.265625 -1.625q1.40625 2.65625 2.625 5.09375l-1.03125 0.484375l0 0.3125q0 12.09375 -5.515625 17.84375q-5.515625 5.75 -17.703125 6.765625l-0.703125 -4.171875q9.640625 -0.921875 13.953125 -4.671875q4.3125 -3.75 4.96875 -12.0625zm15.0469055 2.328125l27.3125 0l0 0.796875q0 8.28125 -5.359375 12.6875q-5.359375 4.390625 -16.40625 4.984375l-0.703125 -4.15625q7.59375 -0.421875 11.96875 -2.8125q4.390625 -2.390625 5.4375 -7.34375l-22.25 0l0 -4.15625zm2.53125 -4.859375l0 -4.15625l22.65625 0l0 4.15625l-22.65625 0zm32.578125 20.3125l0.234375 -4.578125q13.0625 0.453125 26.578125 2.78125l-0.484375 4.5625q-13.578125 -2.3125 -26.328125 -2.765625zm3.015625 -10.5l0.34375 -4.609375q9.5 0.375 20.234375 2.21875l-0.625 4.578125q-10.1875 -1.78125 -19.953125 -2.1875zm-1.5 -9.84375l0.21875 -4.46875q12.125 0.453125 23.9375 2.078125l-0.515625 4.46875q-12.03125 -1.65625 -23.640625 -2.078125zm33.65631 -0.203125l2.21875 -4.171875q5.234375 2.5 10.734375 5.59375l-2.3125 4.078125q-4.640625 -2.59375 -10.640625 -5.5zm23.390625 -0.84375l4.40625 0.984375q-1.84375 10.28125 -8.328125 15.828125q-6.46875 5.546875 -18.015625 6.546875l-0.6875 -4.5q10.046875 -0.96875 15.4375 -5.484375q5.390625 -4.53125 7.1875 -13.375zm41.28125 -1.3125l-3.328125 1.59375q-1.875 -3.609375 -2.703125 -5.125l3.328125 -1.671875q1.59375 2.921875 2.703125 5.203125zm-11.375 4.921875l-11.296875 0q-2.1875 5.34375 -6.71875 9.671875l-3.296875 -2.8125q3.015625 -2.96875 4.9375 -6.828125q1.921875 -3.875 2.40625 -7.890625l4.515625 0.234375q-0.140625 1.5625 -0.5625 3.46875l12.171875 0q-1.046875 -2.015625 -2.015625 -3.8125l3.265625 -1.625q1.40625 2.65625 2.625 5.09375l-1.03125 0.484375l0 0.3125q0 12.09375 -5.515625 17.84375q-5.515625 5.75 -17.703125 6.765625l-0.703125 -4.171875q9.640625 -0.921875 13.953125 -4.671875q4.3125 -3.75 4.96875 -12.0625zm31.781311 16.1875q3.78125 -0.484375 5.828125 -2.9375q2.046875 -2.46875 2.046875 -6.65625q0 -3.609375 -2.203125 -6.078125q-2.203125 -2.484375 -5.734375 -2.96875q-0.84375 6.578125 -1.96875 11.03125q-1.125 4.453125 -2.5 6.78125q-1.359375 2.3125 -2.765625 3.234375q-1.40625 0.921875 -3.203125 0.921875q-2.8125 0 -5.171875 -3.21875q-2.34375 -3.234375 -2.34375 -7.875q0 -6.71875 4.5625 -10.90625q4.578125 -4.203125 11.96875 -4.203125q5.953125 0 9.84375 3.75q3.90625 3.734375 3.90625 9.53125q0 6.015625 -3.0625 9.65625q-3.0625 3.640625 -8.265625 4.09375l-0.9375 -4.15625zm-4.640625 -18.4375q-4.1875 0.796875 -6.59375 3.640625q-2.390625 2.84375 -2.390625 7.03125q0 2.640625 1.078125 4.6875q1.078125 2.03125 2.046875 2.03125q0.484375 0 1.0 -0.46875q0.53125 -0.46875 1.171875 -1.703125q0.640625 -1.25 1.265625 -3.15625q0.625 -1.90625 1.265625 -5.015625q0.640625 -3.125 1.15625 -7.046875zm42.6875 -1.484375l-5.84375 0l0 2.9375l1.65625 0q2.5 -1.5625 4.1875 -2.9375zm6.453125 14.375q-0.25 2.734375 -0.46875 4.5q-0.21875 1.765625 -0.59375 3.109375q-0.359375 1.328125 -0.703125 2.015625q-0.34375 0.703125 -1.015625 1.109375q-0.65625 0.421875 -1.3125 0.53125q-0.65625 0.109375 -1.765625 0.109375q-3.15625 0 -8.3125 -0.25l-0.203125 -3.84375q3.9375 0.203125 6.921875 0.203125q0.65625 0 0.890625 -0.03125q0.25 -0.03125 0.515625 -0.5q0.265625 -0.46875 0.359375 -1.109375q0.109375 -0.640625 0.34375 -2.28125l-14.4375 0q-0.671875 2.53125 -1.078125 3.859375l-4.609375 -0.65625q1.140625 -3.546875 2.0 -7.90625q-1.9375 0.6875 -3.9375 1.25l-1.53125 -3.921875q6.171875 -1.5625 11.46875 -3.984375l-11.296875 0l0 -3.640625l11.71875 0l0 -2.9375l-8.734375 0l0 -3.46875l8.734375 0l0 -2.4375l4.75 0l0 2.4375l7.4375 0l0 2.109375q2.046875 -1.765625 3.71875 -3.78125l3.46875 2.359375q-2.578125 2.984375 -6.03125 5.71875l7.03125 0l0 3.640625l-12.34375 0q-2.25 1.390625 -5.4375 2.953125q9.5 -0.671875 15.671875 -1.875l0.890625 3.46875q-7.546875 1.453125 -20.890625 2.078125q-0.03125 0.203125 -0.125 0.609375q-0.078125 0.390625 -0.125 0.5625l19.03125 0zm10.265686 -10.875l22.375 0l0 4.53125l-7.3125 5.4375l0.046875 0.078125l0.09375 0q0.828125 0 1.453125 0.8125q0.625 0.8125 1.15625 2.859375q0.484375 1.9375 1.046875 2.421875q0.578125 0.484375 2.28125 0.484375q2.171875 0 4.109375 -0.546875l0.765625 3.90625q-2.703125 0.703125 -5.328125 0.703125q-3.1875 0 -4.71875 -1.0q-1.53125 -0.984375 -2.109375 -3.375q-0.484375 -1.875 -0.953125 -2.5625q-0.46875 -0.6875 -1.125 -0.6875q-0.703125 0 -2.21875 1.03125q-1.5 1.015625 -9.53125 6.90625l-2.53125 -3.40625l18.609375 -13.609375l-0.03125 -0.046875l-16.078125 0l0 -3.9375zm3.21875 -4.03125l0.515625 -3.953125q8.53125 1.1875 16.15625 1.1875l0 4.015625q-7.625 0 -16.671875 -1.25zm41.75 25.40625l-0.203125 -4.15625q4.515625 0.34375 6.65625 0.34375q1.171875 0 1.75 -0.65625q0.578125 -0.65625 0.90625 -2.84375q0.328125 -2.1875 0.328125 -6.546875l0 -0.28125l-10.671875 0q-0.84375 5.03125 -3.15625 8.46875q-2.296875 3.421875 -6.71875 6.671875l-3.125 -3.453125q3.609375 -2.53125 5.421875 -4.921875q1.8125 -2.390625 2.609375 -5.828125q0.796875 -3.4375 0.796875 -9.15625l-9.0 0l0 -3.90625l13.34375 0l0 -4.46875l4.75 0l0 4.46875l13.34375 0l0 3.90625l-17.6875 0q0 2.5 -0.140625 4.265625l14.875 0l0 3.09375q0 3.53125 -0.125 5.9375q-0.125 2.40625 -0.453125 4.15625q-0.328125 1.75 -0.78125 2.765625q-0.4375 1.0 -1.28125 1.5625q-0.828125 0.578125 -1.734375 0.75q-0.890625 0.171875 -2.34375 0.171875q-2.8125 0 -7.359375 -0.34375z" fill-rule="nonzero"/><path fill="#000000" fill-opacity="0.0" d="m306.22308 275.35565l508.50397 0" fill-rule="evenodd"/><path stroke="#13202f" stroke-width="1.0" stroke-linejoin="round" stroke-linecap="butt" d="m306.22308 275.35565l508.50397 0" fill-rule="evenodd"/><path fill="#f03748" d="m206.78441 210.96931l2.6961517 0.030517578l5.3306274 0.52349854l5.2378693 1.0469818l5.0840454 1.539978l4.8996735 2.0329285l4.714142 2.494812l4.4370117 2.9566956l4.1287537 3.3874512l1.9721985 1.8791809l1.3868256 1.4472351l2.618637 3.049408l2.372635 3.1720734l2.0955048 3.326416l1.879425 3.4490662l1.5711975 3.5729065l1.3562927 3.665039l1.0474548 3.7266693l0.8008423 3.8188171l0.5237427 3.8499146l0.24658203 3.881012l-0.030517578 3.9115295l-0.30825806 3.8804321l-0.5853882 3.9115295l-0.8936157 3.8804321l-1.1707458 3.819397l-0.7086792 1.8785706l-0.7703247 1.8786011l-1.7256165 3.6345215l-1.9721985 3.4185486l-2.2182007 3.2953186l-2.4037476 3.0799255l-2.6186523 2.8950806l-2.8347015 2.679657l-2.9891205 2.4948425l-3.1429596 2.2483215l-3.3279114 2.0323486l-3.4506073 1.786438l-3.6050415 1.539978l-3.6977997 1.293457l-3.8205109 1.0164795l-3.8827515 0.73947144l-3.9749298 0.46188354l-2.0332642 0.12322998l-55.00084 0l-0.3387909 -0.031097412l-0.5548401 -0.24649048l-0.4620819 -0.43078613l-0.21546936 -0.5851135l-0.03112793 -0.33920288l0 -50.202026l0.03112793 -3.233673l0.46206665 -6.0677185l0.9241638 -5.697403l1.0480347 -4.034775l0.8313904 -2.5869598l0.9864044 -2.5259094l1.1091003 -2.433197l1.2324066 -2.3715668l1.3556976 -2.3099518l2.3109894 -3.3874512l3.5744934 -4.311783l2.0338593 -2.063446l1.9410706 -1.8791809l4.128769 -3.3874512l4.4370117 -2.9566956l4.714142 -2.494812l4.8996735 -2.0329285l5.08403 -1.539978l5.2378693 -1.0469818l5.3306427 -0.52349854l2.6961365 -0.030517578zm-2.9732666 -7.0841827l-5.9160156 0.55459595l-5.8238373 1.1086121l-4.2831726 1.2318573l-2.8035889 0.9853668l-2.804184 1.1397095l-2.7114105 1.2629547l-2.6808624 1.3856201l-2.6186523 1.5399628l-2.5575714 1.6943207l-2.495926 1.8474884l-2.4031677 1.9407959l-2.342102 2.1250763l-1.140213 1.1086121l-1.1396484 1.170227l-2.157135 2.3410645l-2.0027313 2.432602l-1.8489075 2.494812l-1.6944885 2.556427l-1.5717621 2.6180573l-1.3862457 2.6796875l-1.2635193 2.7718048l-1.1091003 2.8334503l-0.9552765 2.925583l-0.8319855 3.0182953l-0.67755127 3.1110382l-0.5243225 3.1720734l-0.40042114 3.2953033l-0.36990356 5.1128845l-0.030532837 3.5417786l0 50.202026l0.030532837 0.893219l0.33937073 1.6943054l0.6775665 1.5704956l0.95526123 1.3862l1.1707611 1.2007446l1.3868256 0.9548645l1.5711823 0.6467285l1.7256012 0.36972046l0.893631 0.030517578l55.12413 0l2.3109894 -0.12265015l4.498657 -0.49298096l4.4370117 -0.831604l4.3137054 -1.1397095l4.1904144 -1.4472351l4.067108 -1.724823l3.9444122 -2.032959l3.7588654 -2.278839l3.5744934 -2.556427l3.388977 -2.8029175l3.204605 -3.0488281l2.9891205 -3.264801l2.7419434 -3.4801636l2.4959106 -3.696167l2.2493286 -3.9109497l1.9411011 -4.0963745l0.86309814 -2.1250916l0.8008423 -2.1250916l1.3557129 -4.342865l1.0169373 -4.373413l0.6781311 -4.435028l0.33877563 -4.4045105l0.061645508 -4.435028l-0.30822754 -4.4039307l-0.5853882 -4.373398l-0.8936157 -4.2812653l-1.2018738 -4.2501526l-1.509552 -4.15802l-1.8177795 -4.034775l-2.0954895 -3.9109497l-2.4031677 -3.7577667l-2.6808777 -3.603424l-2.9580078 -3.4496613l-1.6022949 -1.6321106l-1.1402283 -1.1086121l-2.341507 -2.1250763l-2.4031677 -1.9407959l-2.495926 -1.8474884l-2.5575867 -1.663208l-2.619217 -1.5710754l-2.6808777 -1.3856201l-2.7419434 -1.2629547l-2.773056 -1.1397095l-2.8347168 -0.9853668l-4.2831726 -1.2318573l-5.8238373 -1.1086121l-5.9160156 -0.55459595z" fill-rule="evenodd"/><path fill="#000000" fill-opacity="0.0" d="m305.4252 316.71127l511.93698 0l0 19.40158l-511.93698 0z" fill-rule="evenodd"/><path fill="#979eaa" d="m310.37833 320.32834q1.796875 0 2.78125 0.890625q0.984375 0.890625 0.984375 2.46875q0 1.609375 -1.015625 3.09375q-1.015625 1.484375 -3.9375 3.921875l0 0.03125l4.953125 0l0 1.4375l-7.359375 0l0 -1.4375q3.265625 -2.59375 4.390625 -4.046875q1.140625 -1.46875 1.140625 -2.828125q0 -2.0625 -2.171875 -2.0625q-1.453125 0 -3.03125 1.0625l-0.484375 -1.40625q1.640625 -1.125 3.75 -1.125zm6.923767 1.4375q1.078125 -1.4375 3.234375 -1.4375q2.171875 0 3.25 1.4375q1.078125 1.421875 1.078125 4.578125q0 3.140625 -1.078125 4.5625q-1.078125 1.421875 -3.25 1.421875q-2.15625 0 -3.234375 -1.421875q-1.078125 -1.421875 -1.078125 -4.5625q0 -3.15625 1.078125 -4.578125zm1.3125 8.109375q0.640625 1.046875 1.9375 1.046875q1.296875 0 1.921875 -1.046875q0.625 -1.046875 0.625 -3.546875q0 -2.5 -0.625 -3.546875q-0.625 -1.046875 -1.921875 -1.046875q-1.296875 0 -1.9375 1.046875q-0.625 1.046875 -0.625 3.546875q0 2.5 0.625 3.546875zm11.923767 -9.546875q1.796875 0 2.78125 0.890625q0.984375 0.890625 0.984375 2.46875q0 1.609375 -1.015625 3.09375q-1.015625 1.484375 -3.9375 3.921875l0 0.03125l4.953125 0l0 1.4375l-7.359375 0l0 -1.4375q3.265625 -2.59375 4.390625 -4.046875q1.140625 -1.46875 1.140625 -2.828125q0 -2.0625 -2.171875 -2.0625q-1.453125 0 -3.03125 1.0625l-0.484375 -1.40625q1.640625 -1.125 3.75 -1.125zm6.486267 0.15625l7.203125 0l0 1.453125l-3.4375 3.34375l0 0.03125l0.3125 0q1.546875 0 2.40625 0.828125q0.875 0.8125 0.875 2.34375q0 1.828125 -1.109375 2.84375q-1.109375 1.0 -3.125 1.0q-1.75 0 -3.125 -0.796875l0.484375 -1.4375q1.453125 0.796875 2.625 0.796875q1.1875 0 1.828125 -0.625q0.65625 -0.625 0.65625 -1.78125q0 -0.96875 -0.703125 -1.4375q-0.6875 -0.46875 -2.25 -0.46875l-1.125 0l0 -1.34375l3.4375 -3.265625l0 -0.03125l-4.953125 0l0 -1.453125zm16.439392 0l-5.53125 12.328125l-1.671875 0l5.515625 -12.328125l1.6875 0zm2.5421448 1.28125q1.078125 -1.4375 3.234375 -1.4375q2.171875 0 3.25 1.4375q1.078125 1.421875 1.078125 4.578125q0 3.140625 -1.078125 4.5625q-1.078125 1.421875 -3.25 1.421875q-2.15625 0 -3.234375 -1.421875q-1.078125 -1.421875 -1.078125 -4.5625q0 -3.15625 1.078125 -4.578125zm1.3125 8.109375q0.640625 1.046875 1.9375 1.046875q1.296875 0 1.921875 -1.046875q0.625 -1.046875 0.625 -3.546875q0 -2.5 -0.625 -3.546875q-0.625 -1.046875 -1.921875 -1.046875q-1.296875 0 -1.9375 1.046875q-0.625 1.046875 -0.625 3.546875q0 2.5 0.625 3.546875zm15.376892 -7.9375l-4.890625 0l-0.15625 3.1875l0.03125 0q0.859375 -0.46875 1.96875 -0.46875q1.671875 0 2.59375 0.953125q0.921875 0.9375 0.921875 2.640625q0 2.015625 -1.140625 3.046875q-1.125 1.03125 -3.328125 1.03125q-1.65625 0 -3.046875 -0.71875l0.40625 -1.4375q1.421875 0.71875 2.640625 0.71875q2.71875 0 2.71875 -2.640625q0 -2.21875 -2.078125 -2.21875q-1.1875 0 -1.921875 0.703125l-1.53125 0l0.328125 -6.25l6.484375 0l0 1.453125zm9.392517 -1.453125l-5.53125 12.328125l-1.671875 0l5.515625 -12.328125l1.6875 0zm5.62027 11.6875l0 -9.59375l-0.03125 0l-3.0 2.71875l-0.640625 -1.4375l3.671875 -3.375l1.765625 0l0 11.6875l-1.765625 0zm10.080017 0l0 -9.59375l-0.03125 0l-3.0 2.71875l-0.640625 -1.4375l3.671875 -3.375l1.765625 0l0 11.6875l-1.765625 0zm13.347656 -11.046875l0 12.25l3.046875 0l0 1.28125l-4.640625 0l0 -14.796875l4.640625 0l0 1.265625l-3.046875 0zm5.2596436 -0.640625l8.640625 0l0 1.484375l-3.4375 0l0 10.203125l-1.75 0l0 -10.203125l-3.453125 0l0 -1.484375zm12.385895 4.484375l0.03125 0q1.109375 -1.28125 2.6875 -1.28125q2.71875 0 2.71875 3.6875l0 4.796875l-1.5625 0l0 -4.640625q0 -1.453125 -0.375 -1.984375q-0.375 -0.546875 -1.34375 -0.546875q-0.859375 0 -1.515625 0.84375q-0.640625 0.84375 -0.640625 1.84375l0 4.484375l-1.59375 0l0 -12.0l1.59375 0l0 4.796875zm12.9534 7.203125l-0.03125 -1.203125l-0.03125 0q-1.0625 1.359375 -2.75 1.359375q-1.265625 0 -1.90625 -0.765625q-0.640625 -0.765625 -0.640625 -2.4375l0 -5.265625l1.5625 0l0 5.109375q0 1.140625 0.359375 1.578125q0.359375 0.4375 1.1875 0.4375q0.828125 0 1.5 -0.78125q0.671875 -0.796875 0.671875 -1.875l0 -4.46875l1.59375 0l0 8.3125l-1.515625 0zm6.7058716 1.203125l0 -12.25l-3.046875 0l0 -1.265625l4.640625 0l0 14.796875l-4.640625 0l0 -1.28125l3.046875 0zm29.822174 -7.203125q0 3.046875 -1.578125 4.609375q-1.5625 1.546875 -4.5 1.546875q-1.640625 0 -3.046875 -0.234375l0 -11.515625q1.40625 -0.25 3.046875 -0.25q2.921875 0 4.5 1.515625q1.578125 1.515625 1.578125 4.328125zm-1.6875 0q0 -2.171875 -1.125 -3.28125q-1.109375 -1.125 -3.265625 -1.125q-0.734375 0 -1.28125 0.125l0 8.890625q0.546875 0.109375 1.28125 0.109375q2.234375 0 3.3125 -1.15625q1.078125 -1.15625 1.078125 -3.5625zm4.4927673 1.234375l4.5 0q-0.015625 -1.1875 -0.609375 -1.828125q-0.578125 -0.640625 -1.609375 -0.640625q-1.015625 0 -1.640625 0.65625q-0.609375 0.640625 -0.640625 1.8125zm0 1.25q0.046875 1.109375 0.78125 1.765625q0.734375 0.65625 1.828125 0.65625q1.203125 0 2.40625 -0.609375l0.390625 1.21875q-1.390625 0.640625 -2.953125 0.640625q-1.796875 0 -2.9375 -1.171875q-1.140625 -1.171875 -1.140625 -3.140625q0 -2.015625 1.0625 -3.171875q1.0625 -1.15625 2.859375 -1.15625q1.765625 0 2.75 1.09375q1.0 1.09375 1.0 3.15625q0 0.234375 -0.03125 0.71875l-6.015625 0zm8.782135 -4.796875l2.234375 7.359375l0.03125 0l2.21875 -7.359375l1.734375 0l-2.890625 8.3125l-2.234375 0l-2.875 -8.3125l1.78125 0zm9.805267 3.515625l0 4.796875l-1.765625 0l0 -11.59375q1.5 -0.25 3.203125 -0.25q2.296875 0 3.46875 0.859375q1.171875 0.84375 1.171875 2.34375q0 1.21875 -0.625 2.078125q-0.625 0.859375 -1.703125 1.1875l0 0.03125q0.6875 0.421875 1.28125 1.90625l1.359375 3.4375l-1.828125 0l-1.328125 -3.4375q-0.328125 -0.859375 -0.734375 -1.109375q-0.40625 -0.25 -1.546875 -0.25l-0.953125 0zm0 -1.375l0.953125 0q3.390625 0 3.390625 -2.3125q0 -0.96875 -0.734375 -1.453125q-0.71875 -0.5 -2.328125 -0.5q-0.734375 0 -1.28125 0.125l0 4.140625zm8.964661 1.40625l4.4999695 0q-0.015625 -1.1875 -0.609375 -1.828125q-0.5780945 -0.640625 -1.6093445 -0.640625q-1.015625 0 -1.640625 0.65625q-0.609375 0.640625 -0.640625 1.8125zm0 1.25q0.046875 1.109375 0.78125 1.765625q0.734375 0.65625 1.828125 0.65625q1.2030945 0 2.4062195 -0.609375l0.390625 1.21875q-1.390625 0.640625 -2.9530945 0.640625q-1.796875 0 -2.9375 -1.171875q-1.140625 -1.171875 -1.140625 -3.140625q0 -2.015625 1.0625 -3.171875q1.0625 -1.15625 2.859375 -1.15625q1.7655945 0 2.7499695 1.09375q1.0 1.09375 1.0 3.15625q0 0.234375 -0.03125 0.71875l-6.0155945 0zm8.444 3.515625l0 -12.0l1.6875 0l0 12.0l-1.6875 0zm13.887634 -7.484375q0.5 -1.421875 0.8125 -2.921875l-3.21875 0q0.4375 1.484375 0.75 2.921875l1.65625 0zm-2.5625 8.203125l0 0.640625l-1.703125 0l0 -6.234375l6.9375 0l0 6.234375l-1.65625 0l0 -0.640625l-3.578125 0zm10.40625 -7.6875q0.9375 0.78125 1.4375 1.828125q0.5 1.046875 0.5 2.1875q0 1.390625 -0.625 2.015625q-0.609375 0.625 -1.90625 0.625l-0.984375 0l-0.28125 -1.484375l0.4375 0q1.03125 0 1.359375 -0.234375q0.328125 -0.25 0.328125 -0.984375q0 -1.90625 -2.109375 -3.875q1.171875 -2.046875 1.96875 -4.3125l-2.421875 0l0 12.5625l-1.65625 0l0 -13.921875l5.765625 0l0 1.359375q-0.6875 2.15625 -1.8125 4.234375zm-12.90625 0.921875l0 -1.4375l1.84375 0q-0.34375 -1.40625 -0.78125 -2.921875l-0.90625 0l0 -1.40625l3.140625 0l0 -1.46875l1.71875 0l0 1.46875l3.265625 0l0 1.40625l-0.859375 0q-0.3125 1.546875 -0.796875 2.921875l1.828125 0l0 1.4375l-8.453125 0zm6.078125 5.40625l0 -2.84375l-3.578125 0l0 2.84375l3.578125 0zm15.314575 0.640625l0 -11.6875l1.703125 0l3.84375 6.890625l0.03125 0l3.859375 -6.890625l1.765625 0l0 11.6875l-1.765625 0l0 -8.640625l-0.03125 0l-3.03125 5.4375l-1.609375 0l-3.03125 -5.4375l-0.03125 0l0 8.640625l-1.703125 0zm21.667786 -5.53125l-3.6875 0l0 -1.375l5.359375 0l0 6.1875q-1.765625 0.875 -3.921875 0.875q-2.875 0 -4.59375 -1.625q-1.71875 -1.625 -1.71875 -4.375q0 -2.75 1.65625 -4.375q1.65625 -1.625 4.5 -1.625q2.046875 0 3.640625 0.984375l-0.5625 1.28125q-1.40625 -0.859375 -2.921875 -0.859375q-2.125 0 -3.328125 1.25q-1.1875 1.25 -1.1875 3.34375q0 2.109375 1.25 3.359375q1.265625 1.234375 3.4375 1.234375q1.140625 0 2.078125 -0.390625l0 -3.890625zm5.905884 0.734375l0 4.796875l-1.765625 0l0 -11.59375q1.5 -0.25 3.203125 -0.25q2.296875 0 3.46875 0.859375q1.171875 0.84375 1.171875 2.34375q0 1.21875 -0.625 2.078125q-0.625 0.859375 -1.703125 1.1875l0 0.03125q0.6875 0.421875 1.28125 1.90625l1.359375 3.4375l-1.828125 0l-1.328125 -3.4375q-0.328125 -0.859375 -0.734375 -1.109375q-0.40625 -0.25 -1.546875 -0.25l-0.953125 0zm0 -1.375l0.953125 0q3.390625 0 3.390625 -2.3125q0 -0.96875 -0.734375 -1.453125q-0.71875 -0.5 -2.328125 -0.5q-0.734375 0 -1.28125 0.125l0 4.140625zm28.956543 4.921875l4.21875 0l0 -1.015625l-4.21875 0l0 1.015625zm-1.0625 -6.265625l6.34375 0l0 -1.09375l-6.34375 0l0 1.09375zm0 1.203125l-1.703125 0l0 -3.53125l9.75 0l0 3.53125l-8.046875 0zm9.890625 0.6875l0 4.5q0 1.59375 -0.328125 1.953125q-0.328125 0.375 -1.71875 0.375q-0.40625 0 -2.0 -0.078125l-0.046875 -1.125l-4.734375 0l0 0.640625l-1.609375 0l0 -4.1875l7.4375 0l0 3.25q0.265625 0.015625 0.5625 0.015625q0.5625 0 0.65625 -0.09375q0.109375 -0.109375 0.109375 -0.671875l0 -3.1875l-10.09375 0l0 5.484375l-1.671875 0l0 -6.875l13.4375 0zm-5.84375 -6.34375l6.25 0l0 1.4375l-14.25 0l0 -1.4375l6.25 0l0 -1.3125l1.75 0l0 1.3125zm12.484436 6.375l0.6875 0l0 -2.28125l-0.6875 0l0 2.28125zm2.640625 0l0 -2.28125l-0.671875 0l0 2.28125l0.671875 0zm3.390625 1.4375l0 1.140625l2.234375 0l0 -1.140625l-2.234375 0zm0 -2.328125l0 1.125l2.234375 0l0 -1.125l-2.234375 0zm0 -1.203125l2.234375 0l0 -1.078125l-2.234375 0l0 1.078125zm-10.6875 -4.09375l1.03125 -1.03125q1.171875 0.953125 1.953125 1.703125l0 -0.703125l2.203125 0l0 -1.3125l1.59375 0l0 1.3125l2.03125 0l0 -0.75l6.03125 0l0 1.390625l-2.328125 0q-0.078125 0.390625 -0.25 1.125l2.265625 0l0 8.359375l-1.78125 0q1.359375 0.9375 2.3125 2.0l-0.890625 1.203125q-1.1875 -1.28125 -2.46875 -2.15625l0.78125 -1.046875l-1.796875 0l-0.0625 0l0.796875 1.046875q-0.921875 1.265625 -2.5 2.15625l-0.75 -1.328125q1.328125 -0.765625 2.265625 -1.875l-1.25 0l0 -8.359375l1.5 0q0.03125 -0.125 0.234375 -1.125l-2.0625 0l0 0.765625l-2.078125 0l0 1.15625l1.875 0l0 5.015625l-1.359375 0l-0.3125 0q0.875 1.140625 2.078125 2.15625l-0.5625 1.625q-0.953125 -0.921875 -1.71875 -1.984375l0 3.875l-1.59375 0l0 -3.640625q-0.796875 1.484375 -1.96875 2.71875l-0.71875 -1.5625q1.546875 -1.484375 2.453125 -3.1875l-0.296875 0l-1.359375 0l0 -5.015625l1.890625 0l0 -1.15625l-1.921875 0l-0.828125 0.828125q-0.96875 -1.0 -2.4375 -2.203125zm2.1875 6.21875q-1.140625 -1.25 -2.625 -2.53125l1.03125 -1.09375q1.46875 1.25 2.640625 2.5l-1.046875 1.125zm1.109375 1.734375q-0.703125 2.75 -1.96875 5.109375l-1.375 -0.828125q1.171875 -2.25 1.90625 -4.84375l1.4375 0.5625zm26.595764 3.953125l0 0.96875l-1.65625 0l0 -13.171875l6.890625 0l0 13.171875l-1.671875 0l0 -0.96875l-3.5625 0zm3.5625 -1.4375l0 -9.28125l-3.5625 0l0 9.28125l3.5625 0zm-5.71875 -7.171875l0 1.4375l-2.296875 0q1.03125 1.546875 2.671875 4.09375l-1.265625 0.96875q-0.8125 -1.484375 -1.8125 -3.203125l0 6.625l-1.59375 0l0 -5.546875q-0.828125 1.953125 -2.125 3.4375l-0.921875 -1.421875q1.90625 -2.25 2.75 -4.953125l-2.453125 0l0 -1.4375l2.75 0l0 -2.40625q-1.046875 0.125 -2.4375 0.203125l-0.125 -1.34375q2.9375 -0.1875 6.359375 -0.921875l0.421875 1.3125q-1.453125 0.34375 -2.625 0.515625l0 2.640625l2.703125 0zm22.390686 8.03125l1.09375 0l-0.09375 1.5l-1.0 0q-4.625 0 -6.953125 -0.890625q-2.328125 -0.875 -3.28125 -2.796875q-0.59375 2.140625 -1.765625 3.921875l-1.4375 -0.828125q1.609375 -2.515625 2.265625 -5.609375l1.546875 0q0.296875 1.1875 0.75 1.90625q4.390625 -2.125 6.96875 -5.734375l-10.25 0l0 -1.5l5.203125 0l0 -2.640625l1.75 0l0 2.640625l5.203125 0l0 1.5q-2.78125 4.453125 -7.828125 6.953125q1.078125 0.84375 2.9375 1.21875q1.875 0.359375 4.890625 0.359375zm9.423889 -4.46875q0 4.375 3.125 7.40625l-1.609375 0q-1.53125 -1.40625 -2.359375 -3.328125q-0.828125 -1.921875 -0.828125 -4.078125q0 -2.171875 0.828125 -4.078125q0.828125 -1.90625 2.359375 -3.3125l1.609375 0q-3.125 3.015625 -3.125 7.390625zm11.270874 3.09375l-0.015625 0q-0.765625 1.03125 -1.96875 1.03125q-1.140625 0 -1.859375 -0.875q-0.71875 -0.890625 -0.71875 -2.484375q0 -1.640625 0.6875 -2.5q0.6875 -0.859375 1.890625 -0.859375q1.171875 0 1.96875 0.984375l0.03125 0l0 -0.859375l1.703125 0l0 5.1875l1.421875 0q0.375 -0.921875 0.375 -1.953125q0 -2.109375 -1.3125 -3.40625q-1.296875 -1.3125 -3.40625 -1.3125q-2.078125 0 -3.40625 1.328125q-1.3125 1.3125 -1.3125 3.390625q0 2.078125 1.3125 3.40625q1.328125 1.3125 3.40625 1.3125q1.65625 0 2.828125 -0.859375l0.765625 1.015625q-1.5 1.125 -3.59375 1.125q-2.546875 0 -4.28125 -1.6875q-1.71875 -1.671875 -1.71875 -4.3125q0 -2.625 1.703125 -4.3125q1.703125 -1.6875 4.296875 -1.6875q2.625 0 4.3125 1.671875q1.6875 1.671875 1.6875 4.328125q0 1.765625 -0.859375 3.234375l-3.890625 0l-0.046875 -0.90625zm-2.84375 -2.328125q0 0.9375 0.390625 1.453125q0.390625 0.515625 0.984375 0.515625q0.609375 0 1.0 -0.5q0.390625 -0.5 0.390625 -1.40625l0 -0.125q0 -0.90625 -0.390625 -1.390625q-0.390625 -0.5 -0.984375 -0.5q-1.390625 0 -1.390625 1.953125zm17.387146 -1.375l-3.6875 0l0 -1.375l5.359375 0l0 6.1875q-1.765625 0.875 -3.921875 0.875q-2.875 0 -4.59375 -1.625q-1.71875 -1.625 -1.71875 -4.375q0 -2.75 1.65625 -4.375q1.65625 -1.625 4.5 -1.625q2.046875 0 3.640625 0.984375l-0.5625 1.28125q-1.40625 -0.859375 -2.921875 -0.859375q-2.125 0 -3.328125 1.25q-1.1875 1.25 -1.1875 3.34375q0 2.109375 1.25 3.359375q1.265625 1.234375 3.4375 1.234375q1.140625 0 2.078125 -0.390625l0 -3.890625zm9.265259 5.53125l-0.03125 -1.203125l-0.03125 0q-1.0625 1.359375 -2.75 1.359375q-1.265625 0 -1.90625 -0.765625q-0.640625 -0.765625 -0.640625 -2.4375l0 -5.265625l1.5625 0l0 5.109375q0 1.140625 0.359375 1.578125q0.359375 0.4375 1.1875 0.4375q0.828125 0 1.5 -0.78125q0.671875 -0.796875 0.671875 -1.875l0 -4.46875l1.59375 0l0 8.3125l-1.515625 0zm4.96344 -8.3125l2.234375 7.359375l0.03125 0l2.21875 -7.359375l1.734375 0l-2.890625 8.3125l-2.234375 0l-2.875 -8.3125l1.78125 0zm12.676514 4.1875l-0.796875 0q-1.4375 0 -2.21875 0.5q-0.78125 0.484375 -0.78125 1.3125q0 0.578125 0.359375 0.921875q0.375 0.34375 0.953125 0.34375q1.015625 0 1.75 -0.6875q0.734375 -0.703125 0.734375 -1.703125l0 -0.6875zm-5.359375 1.890625q0 -1.390625 1.171875 -2.234375q1.1875 -0.84375 3.390625 -0.84375l0.796875 0l0 -0.078125q0 -1.015625 -0.40625 -1.40625q-0.40625 -0.40625 -1.4375 -0.40625q-1.515625 0 -2.796875 0.71875l-0.234375 -1.28125q1.34375 -0.71875 3.03125 -0.71875q1.8125 0 2.625 0.734375q0.828125 0.71875 0.828125 2.3125l0 3.203125q0 1.125 0.234375 2.234375l-1.515625 0q-0.140625 -0.703125 -0.15625 -1.28125l-0.03125 0q-0.4375 0.671875 -1.234375 1.0625q-0.796875 0.375 -1.78125 0.375q-1.140625 0 -1.8125 -0.640625q-0.671875 -0.640625 -0.671875 -1.75zm9.91272 2.234375l0 -12.0l1.6875 0l0 12.0l-1.6875 0zm4.800049 -10.234375l0 -1.765625l1.6875 0l0 1.765625l-1.6875 0zm0 10.234375l0 -8.3125l1.6875 0l0 8.3125l-1.6875 0zm4.22937 -6.71875l0 -1.28125l2.078125 0l0 -0.875q0 -2.96875 2.890625 -2.96875q0.828125 0 1.59375 0.25l-0.3125 1.28125q-0.546875 -0.25 -1.125 -0.25q-0.78125 0 -1.09375 0.375q-0.3125 0.375 -0.3125 1.3125l0 0.875l2.6875 0l0 1.28125l-2.6875 0l0 6.71875l-1.640625 0l0 -6.71875l-2.078125 0zm8.307739 -5.59375l1.59375 0q1.546875 1.40625 2.375 3.3125q0.828125 1.90625 0.828125 4.078125q0 2.15625 -0.828125 4.078125q-0.828125 1.921875 -2.375 3.328125l-1.59375 0q3.125 -3.03125 3.125 -7.40625q0 -4.375 -3.125 -7.390625z" fill-rule="nonzero"/><path fill="#000000" fill-opacity="0.0" d="m305.4252 289.1811l343.11807 0l0 19.40158l-343.11807 0z" fill-rule="evenodd"/><path fill="#979eaa" d="m312.09708 294.23563q-1.9375 0 -3.109375 1.25q-1.171875 1.25 -1.171875 3.3125q0 2.078125 1.1875 3.328125q1.203125 1.234375 3.09375 1.234375q1.546875 0 2.953125 -0.875l0.5625 1.3125q-1.59375 1.0 -3.671875 1.0q-2.671875 0 -4.296875 -1.625q-1.625 -1.625 -1.625 -4.375q0 -2.75 1.59375 -4.375q1.609375 -1.625 4.328125 -1.625q2.078125 0 3.671875 1.015625l-0.5625 1.3125q-1.40625 -0.890625 -2.953125 -0.890625zm7.340271 3.203125l0.03125 0q1.109375 -1.28125 2.6875 -1.28125q2.71875 0 2.71875 3.6875l0 4.796875l-1.5625 0l0 -4.640625q0 -1.453125 -0.375 -1.984375q-0.375 -0.546875 -1.34375 -0.546875q-0.859375 0 -1.515625 0.84375q-0.640625 0.84375 -0.640625 1.84375l0 4.484375l-1.59375 0l0 -12.0l1.59375 0l0 4.796875zm12.625275 3.078125l-0.796875 0q-1.4375 0 -2.21875 0.5q-0.78125 0.484375 -0.78125 1.3125q0 0.578125 0.359375 0.921875q0.375 0.34375 0.953125 0.34375q1.015625 0 1.75 -0.6875q0.734375 -0.703125 0.734375 -1.703125l0 -0.6875zm-5.359375 1.890625q0 -1.390625 1.171875 -2.234375q1.1875 -0.84375 3.390625 -0.84375l0.796875 0l0 -0.078125q0 -1.015625 -0.40625 -1.40625q-0.40625 -0.40625 -1.4375 -0.40625q-1.515625 0 -2.796875 0.71875l-0.234375 -1.28125q1.34375 -0.71875 3.03125 -0.71875q1.8125 0 2.625 0.734375q0.828125 0.71875 0.828125 2.3125l0 3.203125q0 1.125 0.234375 2.234375l-1.515625 0q-0.140625 -0.703125 -0.15625 -1.28125l-0.03125 0q-0.4375 0.671875 -1.234375 1.0625q-0.796875 0.375 -1.78125 0.375q-1.140625 0 -1.8125 -0.640625q-0.671875 -0.640625 -0.671875 -1.75zm11.854645 -5.765625l3.015625 0l0 1.28125l-3.015625 0l0 3.84375q0 1.03125 0.265625 1.390625q0.28125 0.359375 0.984375 0.359375q0.796875 0 1.4375 -0.28125l0.25 1.25q-0.921875 0.3125 -1.921875 0.3125q-1.40625 0 -2.03125 -0.625q-0.609375 -0.625 -0.609375 -2.09375l0 -4.15625l-1.765625 0l0 -1.28125l1.765625 0l0 -3.046875l1.625 0l0 3.046875zm6.632141 -0.3125l1.5 6.875l0.03125 0l1.421875 -6.875l2.234375 0l1.4375 6.875l0.03125 0l1.5 -6.875l1.734375 0l-2.25 8.3125l-2.15625 0l-1.421875 -6.71875l-0.03125 0l-1.421875 6.71875l-2.171875 0l-2.234375 -8.3125l1.796875 0zm12.082764 1.0q1.09375 -1.171875 2.90625 -1.171875q1.8125 0 2.90625 1.171875q1.09375 1.171875 1.09375 3.15625q0 1.984375 -1.09375 3.15625q-1.09375 1.15625 -2.90625 1.15625q-1.8125 0 -2.90625 -1.15625q-1.09375 -1.171875 -1.09375 -3.15625q0 -1.984375 1.09375 -3.15625zm1.171875 5.390625q0.640625 0.796875 1.734375 0.796875q1.09375 0 1.71875 -0.796875q0.640625 -0.796875 0.640625 -2.234375q0 -1.4375 -0.640625 -2.234375q-0.625 -0.8125 -1.71875 -0.8125q-1.09375 0 -1.734375 0.8125q-0.640625 0.796875 -0.640625 2.234375q0 1.4375 0.640625 2.234375zm12.918396 -6.5625l0 1.34375q-1.765625 0 -2.796875 0.953125q-1.015625 0.953125 -1.015625 2.5l0 3.6875l-1.625 0l0 -8.3125l1.546875 0l0.03125 1.59375l0.03125 0q1.46875 -1.765625 3.828125 -1.765625zm3.6896362 4.640625l-0.03125 0l0 3.84375l-1.59375 0l0 -12.0l1.59375 0l0 7.046875l0.03125 0l3.65625 -3.359375l2.0 0l-4.328125 3.90625l4.40625 4.40625l-2.0 0l-3.734375 -3.84375zm17.672302 -3.359375l-1.375 -0.71875q0.296875 -0.53125 0.5 -0.953125l-1.328125 0q0.34375 0.6875 1.015625 2.125l4.265625 0l0 -2.9375l-1.875 0q-0.515625 1.375 -1.203125 2.484375zm8.875 0.453125l0 1.46875l-3.625 0q1.1875 2.53125 3.84375 4.390625l-0.6875 1.46875q-2.203125 -1.546875 -3.640625 -3.96875l0 4.828125l-1.6875 0l0 -4.78125q-1.78125 2.421875 -4.28125 3.921875l-0.671875 -1.484375q3.1875 -1.921875 4.609375 -4.375l-3.25 0l0.4375 0.96875l-1.28125 0.875q-0.0625 -0.15625 -0.453125 -1.109375q-0.390625 -0.96875 -0.578125 -1.4375l0 7.421875l-1.59375 0l0 -6.453125q-0.5 1.671875 -1.328125 3.15625l-0.96875 -1.578125q1.453125 -2.59375 2.0 -5.4375l-1.625 0l0 -1.4375l1.921875 0l0 -2.640625l1.59375 0l0 2.640625l1.765625 0l0 0.9375q0.6875 -1.53125 1.0625 -3.4375l1.53125 0.234375q-0.109375 0.640625 -0.328125 1.453125l1.4375 0l0 -1.828125l1.6875 0l0 1.828125l3.671875 0l0 1.4375l-3.671875 0l0 2.9375l4.109375 0zm10.2969055 6.0q-3.140625 0.96875 -8.1875 1.640625l-0.234375 -1.453125q1.96875 -0.265625 3.09375 -0.453125l0 -5.03125l-2.671875 0l0 -1.390625l7.109375 0l0 1.390625l-2.71875 0l0 4.71875q1.953125 -0.390625 3.328125 -0.78125l0.28125 1.359375zm1.4375 -11.40625l0.828125 -1.203125q1.328125 0.703125 2.734375 1.703125l-0.65625 0.90625l1.09375 0l0 1.4375l-4.234375 0q0.140625 1.75 0.390625 3.25q0.265625 1.5 0.546875 2.4375q0.28125 0.9375 0.578125 1.625q0.3125 0.671875 0.53125 0.953125q0.21875 0.28125 0.34375 0.28125q0.5 0 0.765625 -2.71875l1.546875 0.546875q-0.171875 2.171875 -0.75 3.1875q-0.5625 1.03125 -1.328125 1.03125q-0.484375 0 -0.984375 -0.3125q-0.5 -0.3125 -1.046875 -1.09375q-0.53125 -0.78125 -0.96875 -1.953125q-0.4375 -1.171875 -0.78125 -3.03125q-0.34375 -1.875 -0.5 -4.203125l-8.359375 0l0 -1.4375l8.296875 0q-0.046875 -1.140625 -0.046875 -2.375l1.625 0q0 0.90625 0.0625 2.375l2.625 0q-1.09375 -0.734375 -2.3125 -1.40625zm17.43753 3.8125l0 1.21875l-9.125 0l0 -1.21875q-1.234375 0.78125 -2.265625 1.328125l-0.71875 -1.421875q3.640625 -1.984375 6.484375 -4.546875l2.125 0q2.84375 2.5625 6.484375 4.546875l-0.71875 1.421875q-1.03125 -0.546875 -2.265625 -1.328125zm-0.296875 -0.171875q-2.21875 -1.4375 -4.265625 -3.359375q-2.046875 1.921875 -4.265625 3.359375l8.53125 0zm0.125 4.78125q1.25 2.171875 2.546875 4.640625l-1.484375 0.65625q-0.109375 -0.203125 -0.375 -0.703125q-0.265625 -0.5 -0.40625 -0.78125q-5.859375 0.796875 -10.984375 0.96875l-0.09375 -1.453125q1.53125 -0.0625 2.265625 -0.109375q0.96875 -1.875 1.65625 -3.5625l-4.3125 0l0 -1.4375l13.59375 0l0 1.4375l-7.46875 0q-0.671875 1.703125 -1.546875 3.4375q3.0 -0.203125 6.171875 -0.609375q-0.46875 -0.84375 -1.03125 -1.828125l1.46875 -0.65625zm15.9687805 3.125l3.078125 0l0 1.53125l-8.796875 0l0 -1.53125l4.0 0l0 -7.625l-3.359375 0l0 -1.5l3.359375 0l0 -3.09375l1.71875 0l0 3.09375l2.84375 0l0 1.5l-2.84375 0l0 7.625zm-7.71875 -9.953125l2.15625 0l0 1.515625q-0.625 1.515625 -1.421875 2.640625q1.703125 1.65625 2.609375 2.65625l-1.125 1.09375q-1.0 -1.15625 -2.25 -2.375l0 6.46875l-1.703125 0l0 -5.296875q-0.96875 0.875 -2.140625 1.484375l-0.40625 -1.765625q3.21875 -1.84375 4.59375 -4.90625l-4.15625 0l0 -1.515625l2.15625 0l0 -2.390625l1.6875 0l0 2.390625z" fill-rule="nonzero"/></g></svg>